<svg width="67" height="74" viewBox="0 0 67 74" fill="none" xmlns="http://www.w3.org/2000/svg">
<path d="M7.38 28.18C5.676 28.18 4.056 27.76 2.52 26.92C0.984 26.08 0.216 24.46 0.216 22.06C0.216 20.5 0.588 19.252 1.332 18.316C2.1 17.38 3.18 16.912 4.572 16.912C6.204 16.912 7.14 17.524 7.38 18.748C6.156 18.82 5.316 19.24 4.86 20.008C4.428 20.776 4.212 21.652 4.212 22.636C4.212 23.668 4.512 24.472 5.112 25.048C5.712 25.624 6.444 25.912 7.308 25.912C8.076 25.912 8.808 25.684 9.504 25.228C10.224 24.772 10.812 24.076 11.268 23.14C11.724 22.204 11.952 21.076 11.952 19.756C11.952 18.292 11.544 16.936 10.728 15.688C9.936 14.416 8.748 13.504 7.164 12.952C8.436 12.592 9.54 12.028 10.476 11.26C11.412 10.468 12.12 9.604 12.6 8.668C13.08 7.708 13.32 6.796 13.32 5.932C13.32 5.044 13.08 4.336 12.6 3.808C12.144 3.256 11.472 2.98 10.584 2.98C9.72 2.98 9.024 3.244 8.496 3.772C7.992 4.276 7.74 4.948 7.74 5.788C7.74 6.364 7.848 6.904 8.064 7.408C8.304 7.912 8.652 8.224 9.108 8.344C8.22 9.16 7.308 9.568 6.372 9.568C5.628 9.568 5.004 9.304 4.5 8.776C4.02 8.224 3.78 7.468 3.78 6.508C3.78 5.428 4.104 4.48 4.752 3.664C5.424 2.824 6.324 2.176 7.452 1.72C8.58 1.264 9.84 1.036 11.232 1.036C12.648 1.036 13.86 1.276 14.868 1.756C15.876 2.236 16.632 2.872 17.136 3.664C17.664 4.456 17.928 5.332 17.928 6.292C17.928 7.54 17.508 8.764 16.668 9.964C15.828 11.164 14.604 12.172 12.996 12.988C14.508 13.492 15.636 14.272 16.38 15.328C17.148 16.36 17.532 17.56 17.532 18.928C17.532 20.416 17.1 21.88 16.236 23.32C15.396 24.736 14.196 25.9 12.636 26.812C11.1 27.724 9.348 28.18 7.38 28.18ZM26.8718 28.36C24.2318 28.36 22.3598 27.556 21.2558 25.948C20.1518 24.34 19.5998 22.144 19.5998 19.36C19.5998 16.048 20.1158 12.976 21.1478 10.144C22.1798 7.312 23.6198 5.056 25.4678 3.376C27.3398 1.672 29.4638 0.819998 31.8398 0.819998C34.1438 0.819998 35.8718 1.588 37.0237 3.124C38.1998 4.66 38.7878 6.772 38.7878 9.46C38.7878 12.124 38.3798 14.92 37.5638 17.848C36.7478 20.752 35.4398 23.236 33.6398 25.3C31.8638 27.34 29.6078 28.36 26.8718 28.36ZM27.3398 25.66C28.4678 25.66 29.5358 24.796 30.5438 23.068C31.5518 21.34 32.3558 19.12 32.9558 16.408C33.5798 13.696 33.8918 10.96 33.8918 8.2C33.8918 6.688 33.7118 5.44 33.3518 4.456C32.9918 3.448 32.4758 2.944 31.8038 2.944C30.6998 2.944 29.6198 3.82 28.5638 5.572C27.5078 7.324 26.6438 9.556 25.9718 12.268C25.2998 14.98 24.9638 17.644 24.9638 20.26C24.9638 23.86 25.7558 25.66 27.3398 25.66ZM44.4001 15.76C41.6641 15.76 40.2961 13.972 40.2961 10.396C40.2961 8.596 40.6201 6.94 41.2681 5.428C41.9161 3.916 42.7921 2.728 43.8961 1.864C45.0241 0.976 46.2601 0.532 47.6041 0.532C48.9961 0.532 50.0401 0.987999 50.7361 1.9C51.4321 2.788 51.7801 4.12 51.7801 5.896C51.7801 7.672 51.4441 9.316 50.7721 10.828C50.1241 12.34 49.2361 13.54 48.1081 14.428C46.9801 15.316 45.7441 15.76 44.4001 15.76ZM44.9041 14.284C45.5281 14.284 46.1161 13.84 46.6681 12.952C47.2201 12.064 47.6641 10.888 48.0001 9.424C48.3361 7.96 48.5041 6.388 48.5041 4.708C48.5041 3.748 48.4201 3.064 48.2521 2.656C48.0841 2.248 47.7961 2.044 47.3881 2.044C46.7881 2.044 46.1881 2.5 45.5881 3.412C45.0121 4.3 44.5321 5.464 44.1481 6.904C43.7881 8.344 43.6081 9.808 43.6081 11.296C43.6081 12.328 43.7041 13.084 43.8961 13.564C44.1121 14.044 44.4481 14.284 44.9041 14.284ZM59.5561 0.927999H62.1481L47.1721 28H44.5801L59.5561 0.927999ZM59.4121 28.216C56.6761 28.216 55.3081 26.428 55.3081 22.852C55.3081 21.052 55.6321 19.396 56.2801 17.884C56.9281 16.372 57.8041 15.184 58.9081 14.32C60.0361 13.432 61.2721 12.988 62.6161 12.988C64.0081 12.988 65.0521 13.444 65.7481 14.356C66.4441 15.244 66.7921 16.576 66.7921 18.352C66.7921 20.128 66.4561 21.772 65.7841 23.284C65.1361 24.796 64.2481 25.996 63.1201 26.884C61.9921 27.772 60.7561 28.216 59.4121 28.216ZM59.9161 26.74C60.5401 26.74 61.1281 26.296 61.6801 25.408C62.2321 24.52 62.6761 23.344 63.0121 21.88C63.3481 20.416 63.5161 18.844 63.5161 17.164C63.5161 16.204 63.4321 15.52 63.2641 15.112C63.0961 14.704 62.8081 14.5 62.4001 14.5C61.8001 14.5 61.2001 14.956 60.6001 15.868C60.0241 16.756 59.5441 17.92 59.1601 19.36C58.8001 20.8 58.6201 22.264 58.6201 23.752C58.6201 24.784 58.7161 25.54 58.9081 26.02C59.1241 26.5 59.4601 26.74 59.9161 26.74ZM10.332 73.216C8.316 73.216 6.732 72.64 5.58 71.488C4.452 70.336 3.888 68.5 3.888 65.98C3.888 63.844 4.272 61.444 5.04 58.78C5.808 56.116 6.924 53.836 8.388 51.94C9.876 50.044 11.628 49.096 13.644 49.096C14.364 49.096 14.988 49.192 15.516 49.384C14.46 50.008 13.44 51.292 12.456 53.236C11.496 55.18 10.716 57.352 10.116 59.752C9.516 62.152 9.216 64.276 9.216 66.124C9.216 67.42 9.384 68.44 9.72 69.184C10.056 69.928 10.584 70.3 11.304 70.3C12.48 70.3 13.644 69.46 14.796 67.78C15.972 66.076 16.932 63.94 17.676 61.372C18.444 58.804 18.828 56.332 18.828 53.956C18.828 52.468 18.696 51.28 18.432 50.392C18.192 49.48 17.736 48.796 17.064 48.34C16.392 47.884 15.444 47.656 14.22 47.656C12.372 47.656 10.656 48.04 9.072 48.808C7.488 49.552 6.216 50.632 5.256 52.048C4.32 53.44 3.852 55.06 3.852 56.908C3.852 57.556 3.912 58.036 4.032 58.348C4.152 58.636 4.212 58.804 4.212 58.852C3.012 58.852 2.1 58.612 1.476 58.132C0.876 57.652 0.576 56.884 0.576 55.828C0.576 54.172 1.248 52.588 2.592 51.076C3.96 49.564 5.76 48.34 7.992 47.404C10.248 46.468 12.612 46 15.084 46C18.084 46 20.256 46.816 21.6 48.448C22.944 50.08 23.616 52.336 23.616 55.216C23.616 57.784 23.136 60.46 22.176 63.244C21.216 66.028 19.728 68.392 17.712 70.336C15.72 72.256 13.26 73.216 10.332 73.216ZM32.2934 48.952C30.7814 49 29.6174 49.576 28.8014 50.68C28.0094 51.784 27.6134 53.692 27.6134 56.404C27.6134 57.292 27.6974 57.916 27.8654 58.276C28.0334 58.612 28.1174 58.804 28.1174 58.852C26.8214 58.852 25.8494 58.588 25.2014 58.06C24.5774 57.508 24.2654 56.608 24.2654 55.36C24.2654 53.656 24.6854 52.108 25.5254 50.716C26.3654 49.3 27.6974 48.16 29.5214 47.296C31.3694 46.432 33.7094 46 36.5414 46C37.1174 46 37.8854 46.06 38.8454 46.18C40.5734 46.348 41.7974 46.432 42.5174 46.432C43.7894 46.432 44.8694 46.288 45.7574 46C45.6854 46.216 45.5534 46.696 45.3614 47.44C45.1694 48.16 44.8214 48.784 44.3174 49.312C43.8374 49.816 43.1774 50.152 42.3374 50.32C40.9214 50.32 39.2414 50.092 37.2974 49.636L35.7854 56.8H41.0414L40.4654 59.464H35.2094L32.2934 73H27.1094L32.2934 48.952ZM48.8168 48.952C47.3048 49 46.1408 49.576 45.3248 50.68C44.5328 51.784 44.1368 53.692 44.1368 56.404C44.1368 57.292 44.2208 57.916 44.3888 58.276C44.5568 58.612 44.6408 58.804 44.6408 58.852C43.3448 58.852 42.3728 58.588 41.7248 58.06C41.1008 57.508 40.7888 56.608 40.7888 55.36C40.7888 53.656 41.2088 52.108 42.0488 50.716C42.8888 49.3 44.2208 48.16 46.0448 47.296C47.8928 46.432 50.2328 46 53.0648 46C53.6408 46 54.4088 46.06 55.3688 46.18C57.0968 46.348 58.3208 46.432 59.0408 46.432C60.3128 46.432 61.3928 46.288 62.2808 46C62.2088 46.216 62.0768 46.696 61.8848 47.44C61.6928 48.16 61.3448 48.784 60.8408 49.312C60.3608 49.816 59.7008 50.152 58.8608 50.32C57.4448 50.32 55.7648 50.092 53.8208 49.636L52.3088 56.8H57.5648L56.9888 59.464H51.7328L48.8168 73H43.6328L48.8168 48.952Z" fill="#9B5619"/>
</svg>
