<svg width="232" height="200" viewBox="0 0 232 200" fill="none" xmlns="http://www.w3.org/2000/svg">
<path d="M149.625 11.6044C149.625 11.6044 84.9913 8.95469 32.4199 39.3237C-20.1515 69.6927 6.5257 176.006 24.4908 182.737C42.4559 189.468 111.54 201.088 164.866 181.33C218.192 161.572 235.687 90.0138 228.01 69.4675C220.332 48.9213 205.423 17.4426 149.625 11.6044Z" fill="#355B5E"/>
<path opacity="0.7" d="M149.625 11.6044C149.625 11.6044 84.9913 8.95469 32.4199 39.3237C-20.1515 69.6927 6.5257 176.006 24.4908 182.737C42.4559 189.468 111.54 201.088 164.866 181.33C218.192 161.572 235.687 90.0138 228.01 69.4675C220.332 48.9213 205.423 17.4426 149.625 11.6044Z" fill="white"/>
<g opacity="0.3">
<path d="M44.3731 128.199C44.0552 126.571 41.5972 123.511 41.5972 123.507C41.5972 123.503 39.6991 125.493 39.609 125.634C38.4464 127.242 37.3218 130.917 38.9447 132.517C39.224 132.777 39.5648 132.983 39.9448 133.123C40.3249 133.263 40.7355 133.334 41.1499 133.33C41.5643 133.326 41.9731 133.248 42.3495 133.101C42.7258 132.954 43.0613 132.742 43.3339 132.477C44.5344 131.416 44.6436 129.586 44.3731 128.199Z" fill="black"/>
<path d="M54.1619 121.291C53.3837 119.852 50.3136 117.6 50.0669 117.423C51.5814 115.938 52.978 114.369 54.2474 112.727C54.9971 111.774 55.7136 110.793 56.4206 109.804C56.1786 110.294 55.9461 110.737 55.9461 110.801C55.3293 112.61 55.3909 116.43 57.4551 117.592C57.8041 117.78 58.1959 117.904 58.605 117.955C59.014 118.005 59.4312 117.983 59.8292 117.888C60.2273 117.793 60.5972 117.628 60.915 117.404C61.2328 117.18 61.4912 116.902 61.6735 116.587C62.5039 115.276 62.0389 113.487 61.3461 112.208C60.6533 110.93 58.0719 108.952 57.3792 108.441C57.6496 108.039 57.9201 107.677 58.1858 107.295C59.4528 105.457 60.7102 103.616 62.0104 101.847C62.4849 101.22 62.9594 100.62 63.434 100.017C63.2157 100.456 63.0401 100.822 63.0211 100.886C62.3995 102.691 62.4612 106.495 64.5253 107.673C64.8742 107.86 65.2657 107.983 65.6744 108.034C66.0831 108.085 66.4999 108.063 66.8977 107.968C67.2954 107.874 67.6654 107.71 67.9834 107.486C68.3014 107.263 68.5605 106.985 68.7438 106.672C69.5742 105.357 69.1091 103.568 68.4163 102.289C67.7236 101.011 65.3889 99.2253 64.5728 98.6141C65.0853 98.011 65.593 97.4079 66.1197 96.8369C66.4851 96.4348 66.8125 96.0689 67.2063 95.7031L68.3452 94.6134C69.0949 93.942 69.8684 93.2423 70.6228 92.603C71.1401 92.1567 71.6478 91.7386 72.1555 91.3124C71.681 91.9316 70.8126 93.1579 70.732 93.2665C69.783 94.9753 69.1803 98.7388 71.0072 100.17C71.3188 100.4 71.6841 100.573 72.0793 100.675C72.4746 100.778 72.8909 100.809 73.3013 100.767C73.7117 100.724 74.107 100.609 74.4614 100.429C74.8158 100.248 75.1215 100.007 75.3585 99.7198C76.4119 98.5136 76.2743 96.7002 75.833 95.3492C75.33 93.8615 72.8151 91.3284 72.5114 91.0229C73.3513 90.3273 74.1817 89.6518 74.9741 89.0125C75.5625 88.5501 76.1272 88.1118 76.6776 87.6937L75.833 86.592C75.2304 87.0704 74.6087 87.573 73.9587 88.1078C73.0998 88.8154 72.1982 89.5834 71.2777 90.3795C70.253 89.7668 69.1866 89.2056 68.0842 88.6988C68.5587 87.1589 68.1269 84.095 68.0842 83.701C69.242 83.512 70.3666 83.3391 71.4343 83.1904L73.0713 82.9692L72.1792 81.8032L71.178 81.96C70.0012 82.145 68.7485 82.3621 67.4673 82.6033C67.2917 82.2254 65.8587 79.1455 64.5491 78.0598C63.3628 77.0788 61.5264 76.1098 59.8039 76.3309C59.3936 76.3719 58.998 76.4855 58.6428 76.6644C58.2877 76.8433 57.9809 77.0835 57.7424 77.3694C57.5039 77.6553 57.339 77.9805 57.2584 78.3238C57.1779 78.6672 57.1834 79.0211 57.2748 79.3626C57.8964 81.4051 62.1006 82.728 64.3213 82.8406C64.4494 82.8406 65.8777 82.7843 66.7793 82.736C66.2573 82.8325 65.7448 82.925 65.2086 83.0295C64.141 83.2346 63.0876 83.4678 61.9487 83.7131L60.3022 84.1152C59.747 84.2438 59.1823 84.4368 58.6129 84.5976C57.308 84.9997 56.0126 85.442 54.7124 85.9205C54.4989 85.1163 53.6874 82.3339 52.6862 81.2081C51.685 80.0823 50.0479 78.8881 48.2875 78.8881C47.8744 78.876 47.4629 78.9376 47.0797 79.0689C46.6966 79.2003 46.3503 79.3985 46.0634 79.6507C45.7766 79.9029 45.5556 80.2033 45.4147 80.5326C45.2738 80.8619 45.2163 81.2126 45.2458 81.5619C45.4973 83.6568 49.4168 85.5063 51.5901 85.9004C51.7229 85.9245 53.3221 86.0612 54.1999 86.1215C53.4217 86.415 52.6435 86.7045 51.87 87.0262C49.6351 87.947 47.4049 88.9361 45.1747 89.9171L43.1248 90.8017C43.0536 90.5203 42.1757 87.183 41.0511 85.9165C40.0499 84.7947 38.4128 83.6005 36.6524 83.5965C36.2395 83.5842 35.8282 83.6458 35.4452 83.7772C35.0623 83.9087 34.7163 84.1069 34.4298 84.3592C34.1433 84.6114 33.9228 84.912 33.7825 85.2413C33.6421 85.5705 33.5853 85.9212 33.6155 86.2703C33.8622 88.3651 37.7817 90.2147 39.955 90.6087C40.1163 90.6409 42.413 90.8339 43.0014 90.858C41.4924 91.5054 39.9882 92.1406 38.4698 92.7156C36.4258 93.5001 34.3241 94.1716 32.1777 94.726C32.1445 94.5933 31.2287 91.1073 30.0946 89.8086C29.0981 88.6868 27.4563 87.4886 25.7006 87.4886C25.2876 87.4752 24.8758 87.5358 24.4923 87.6665C24.1088 87.7972 23.7622 87.995 23.4751 88.247C23.188 88.499 22.9669 88.7995 22.8263 89.1289C22.6856 89.4583 22.6286 89.8091 22.659 90.1584C22.9057 92.2572 26.8252 94.1068 28.9985 94.5008C29.1693 94.533 31.6415 94.7381 32.0923 94.7501C31.9642 94.7783 31.8408 94.8225 31.7174 94.8547C29.5436 95.362 27.3202 95.7024 25.0743 95.8719C23.8405 95.9805 22.6495 96.0247 21.4917 96.0488C21.4015 95.3854 20.9555 92.3497 20.0681 91.0872C19.1808 89.8247 17.7478 88.538 16.0015 88.3732C15.5927 88.3221 15.1757 88.3446 14.7778 88.4391C14.3799 88.5337 14.01 88.6983 13.6921 88.9221C13.3743 89.1459 13.1156 89.4239 12.9331 89.7381C12.7505 90.0523 12.6481 90.3955 12.6325 90.7454C12.604 92.8523 16.2625 95.0557 18.3694 95.6508C18.4833 95.683 19.6933 95.9041 20.5759 96.0529C20.0539 96.0529 19.5129 96.0529 19.01 96.0529C17.1119 96.0529 15.4084 95.9242 13.8852 95.8116C13.0216 95.7433 12.2387 95.6669 11.5126 95.5905C11.0381 94.9753 9.0167 92.5226 7.57418 91.7627C6.13166 91.0028 4.12921 90.4077 2.48739 90.9585C2.09674 91.0729 1.73891 91.2558 1.43724 91.4952C1.13556 91.7346 0.896809 92.0252 0.736535 92.348C0.576262 92.6709 0.498065 93.0187 0.507042 93.3688C0.516018 93.719 0.611966 94.0636 0.788633 94.3802C1.90849 96.2579 6.35468 96.7927 8.54693 96.4911C8.73674 96.463 11.6503 95.7795 11.6265 95.7473L11.5981 95.7111C12.2956 95.7996 13.0501 95.884 13.8757 95.9644C15.3989 96.1051 17.1214 96.2499 19.01 96.3022C21.0426 96.3762 23.0786 96.3493 25.1075 96.2217C27.3827 96.0912 29.6395 95.7871 31.8503 95.313L31.931 95.2929C31.3094 95.6226 29.6201 96.5836 29.4967 96.6721C27.8074 97.8783 25.3827 101.095 26.3317 103.037C26.5011 103.357 26.7479 103.643 27.0561 103.876C27.3643 104.11 27.727 104.286 28.1207 104.393C28.5144 104.501 28.9303 104.537 29.3415 104.499C29.7526 104.461 30.1499 104.351 30.5074 104.175C32.0496 103.467 32.8278 101.762 33.084 100.367C33.3688 98.7991 32.2726 95.49 32.1825 95.2286C34.4186 94.7009 36.6109 94.0481 38.745 93.2745C39.9882 92.8282 41.2267 92.3457 42.4652 91.8511C41.9385 92.1487 41.4734 92.4181 41.4118 92.4623C39.7225 93.6685 37.2977 96.8852 38.2468 98.8272C38.4137 99.1447 38.6573 99.4291 38.9616 99.6621C39.266 99.8951 39.6245 100.072 40.0142 100.18C40.4038 100.289 40.816 100.327 41.2242 100.293C41.6324 100.259 42.0276 100.153 42.3845 99.9812C43.9314 99.2775 44.7096 97.5687 44.9659 96.1775C45.2221 94.7863 44.3537 91.9275 44.1117 91.1797C44.5863 90.9867 45.0608 90.7977 45.5353 90.6007C47.794 89.6598 50.0384 88.7149 52.2781 87.8424C53.0658 87.5368 53.8583 87.2594 54.6507 86.978C54.1762 87.2433 53.7966 87.4685 53.7396 87.5087C52.0504 88.7149 49.6256 91.9316 50.5746 93.8736C50.7434 94.1937 50.9899 94.4801 51.298 94.7142C51.6061 94.9482 51.9689 95.1247 52.3629 95.232C52.7568 95.3393 53.173 95.3752 53.5843 95.3372C53.9957 95.2992 54.393 95.1882 54.7503 95.0115C56.2925 94.3038 57.0707 92.599 57.327 91.2038C57.5832 89.8086 56.8002 87.2353 56.5155 86.3427C57.3364 86.0773 58.1526 85.8079 58.9593 85.5827C59.5145 85.438 60.0364 85.2651 60.6058 85.1445L62.2666 84.7665C63.3296 84.5574 64.4257 84.3363 65.4696 84.1554C66.1956 84.0267 66.8932 83.9141 67.5907 83.7975C66.803 84.095 65.2703 84.7062 65.1517 84.7705C63.5263 85.6902 62.2075 86.9489 61.3224 88.4254C61.1358 88.5222 60.9596 88.6325 60.7957 88.7551C60.4802 88.9813 60.2244 89.2611 60.0448 89.5765C59.8653 89.8918 59.7661 90.2357 59.7535 90.5857C59.741 90.9356 59.8155 91.2839 59.9721 91.6079C60.1288 91.9319 60.3641 92.2244 60.6628 92.4663C62.5087 93.8776 66.8789 93.0132 68.8007 92.0642C68.9146 92.008 70.0629 91.2882 70.7842 90.8258C70.4093 91.1515 70.0439 91.4652 69.6643 91.8069C68.9098 92.4784 68.1791 93.1659 67.3914 93.9017L66.281 95.0155C65.9014 95.3774 65.5598 95.8197 65.1897 96.2217C64.3593 97.1586 63.5668 98.1437 62.8171 99.1529C62.1243 98.594 59.6283 96.6399 58.0719 96.1695C56.5155 95.699 54.3612 95.4699 52.895 96.2861C52.5421 96.4685 52.2385 96.7119 52.004 97.0005C51.7695 97.289 51.6095 97.6162 51.5343 97.9607C51.4591 98.3051 51.4704 98.6592 51.5675 98.9997C51.6646 99.3402 51.8453 99.6596 52.0978 99.937C53.6685 101.573 58.1431 101.28 60.212 100.596C60.3401 100.552 61.7589 99.9209 62.5324 99.559C62.0579 100.166 61.6166 100.765 61.18 101.401C59.9131 103.214 58.6983 105.08 57.4788 106.941C57.1039 107.512 56.7243 108.075 56.3447 108.638C56.1027 108.437 53.1939 106.061 51.4335 105.534C49.8676 105.063 47.7228 104.834 46.2566 105.655C45.9036 105.837 45.6 106.08 45.3656 106.369C45.1311 106.657 44.971 106.985 44.8958 107.329C44.8206 107.674 44.8319 108.028 44.929 108.368C45.0261 108.709 45.2068 109.028 45.4594 109.305C47.03 110.938 51.5047 110.644 53.5736 109.961C53.7301 109.909 55.7705 108.996 56.2735 108.755C55.4431 110.001 54.5985 111.235 53.7064 112.426C52.5135 114.035 51.1979 115.577 49.768 117.041C49.6541 116.949 46.6314 114.456 44.833 113.917C43.2671 113.447 41.1223 113.218 39.6561 114.034C39.3031 114.216 38.9995 114.46 38.7651 114.748C38.5306 115.037 38.3706 115.364 38.2953 115.708C38.2201 116.053 38.2314 116.407 38.3285 116.747C38.4256 117.088 38.6063 117.407 38.8589 117.685C40.4295 119.321 44.9042 119.028 46.9731 118.344C47.1344 118.288 49.3456 117.307 49.711 117.102C49.6303 117.19 49.5544 117.283 49.469 117.367C47.9878 118.803 46.3585 120.125 44.6005 121.315C43.6515 121.987 42.7024 122.578 41.7249 123.137C41.2172 122.626 38.8779 120.322 37.312 119.663C35.7461 119.004 33.7151 118.622 32.154 119.301C31.7809 119.447 31.448 119.657 31.1767 119.919C30.9053 120.18 30.7017 120.487 30.5787 120.819C30.4558 121.151 30.4163 121.502 30.4629 121.847C30.5095 122.193 30.641 122.527 30.8491 122.827C32.2015 124.596 36.6856 124.721 38.8304 124.235C38.949 124.21 40.0974 123.832 40.9325 123.539C40.496 123.788 40.0547 124.05 39.6323 124.279C38.0522 125.143 36.5433 125.855 35.2004 126.474C34.4317 126.82 33.7294 127.121 33.0698 127.399C32.2631 127.113 28.9937 126.008 27.295 126.048C25.5962 126.088 23.5368 126.526 22.5166 127.741C22.2655 128.019 22.0864 128.338 21.9908 128.679C21.8952 129.02 21.8854 129.374 21.9619 129.718C22.0385 130.062 22.1997 130.388 22.4351 130.676C22.6704 130.964 22.9747 131.206 23.328 131.388C25.4871 132.433 29.5347 130.792 31.1765 129.522C31.3189 129.413 33.2976 127.479 33.2596 127.463H33.2074C33.848 127.21 34.5361 126.928 35.2763 126.611C36.6382 126.016 38.1708 125.332 39.7747 124.492C41.5209 123.604 43.2036 122.629 44.814 121.573C46.6253 120.4 48.3087 119.092 49.8439 117.665L49.8961 117.612C49.5924 118.171 48.8094 119.767 48.7667 119.896C48.1499 121.705 48.2115 125.505 50.2709 126.683C50.6198 126.871 51.0113 126.994 51.42 127.045C51.8287 127.096 52.2455 127.073 52.6433 126.979C53.0411 126.884 53.411 126.72 53.729 126.497C54.047 126.273 54.3061 125.996 54.4894 125.682C55.3198 124.359 54.8547 122.57 54.1619 121.291Z" fill="black"/>
<path d="M21.1314 96.3625C21.1314 96.3223 18.2843 97.1345 18.0945 97.2069C16.0825 98.0111 12.7467 100.544 13.0551 102.639C13.1213 102.984 13.2721 103.313 13.4976 103.605C13.7232 103.897 14.0185 104.146 14.3646 104.335C14.7107 104.525 15.0999 104.651 15.5069 104.705C15.914 104.759 16.3299 104.74 16.7279 104.649C18.4361 104.316 19.722 102.84 20.4006 101.557C21.193 100.066 21.1314 96.3665 21.1314 96.3625Z" fill="black"/>
</g>
<g opacity="0.3">
<path d="M146.203 11.347C147.404 12.6457 151.295 14.3304 151.3 14.3304C151.304 14.3304 151.831 11.8215 151.836 11.6606C151.945 9.77892 150.849 6.09186 148.514 5.34801C148.124 5.23362 147.709 5.1902 147.297 5.22059C146.885 5.25098 146.485 5.35448 146.123 5.52438C145.762 5.69428 145.446 5.92676 145.198 6.20672C144.949 6.48668 144.773 6.80784 144.68 7.14932C144.239 8.58876 145.183 10.2453 146.203 11.347Z" fill="black"/>
<path d="M141.53 21.3869C143.029 22.3318 146.996 23.0555 147.314 23.1158C146.821 25.0361 146.483 26.9827 146.303 28.9419C146.185 30.0838 146.109 31.2338 146.052 32.3918C145.985 31.861 145.919 31.3866 145.905 31.3222C145.43 29.4807 143.214 26.1716 140.737 25.9786C140.325 25.9557 139.912 26.0066 139.524 26.128C139.137 26.2495 138.784 26.4386 138.488 26.6833C138.193 26.9279 137.962 27.2226 137.81 27.548C137.657 27.8734 137.588 28.2223 137.605 28.572C137.605 30.0597 139.029 31.4429 140.372 32.2792C141.715 33.1155 145.088 33.8071 145.985 33.976C145.985 34.4183 145.943 34.8605 145.928 35.3069C145.857 37.4379 145.791 39.5608 145.658 41.6436C145.61 42.3794 145.53 43.0991 145.454 43.8229C145.397 43.3524 145.34 42.9544 145.326 42.8941C144.851 41.0566 142.64 37.7475 140.158 37.5504C139.746 37.5276 139.333 37.5785 138.945 37.6999C138.558 37.8213 138.205 38.0105 137.91 38.2551C137.614 38.4998 137.383 38.7944 137.231 39.1198C137.078 39.4452 137.009 39.7941 137.026 40.1439C137.026 41.6315 138.45 43.0147 139.793 43.855C141.136 44.6954 144.187 45.3146 145.245 45.5156C145.141 46.2555 145.041 46.9953 144.899 47.7029C144.79 48.1895 144.728 48.6599 144.585 49.1384C144.443 49.6168 144.329 50.0913 144.206 50.5617C143.926 51.4543 143.646 52.3831 143.347 53.2476C143.143 53.8547 142.934 54.4257 142.73 55.0047C142.787 54.2729 142.863 52.8415 142.853 52.7209C142.706 50.8432 141.117 47.2888 138.706 46.7782C138.302 46.702 137.884 46.6989 137.479 46.769C137.074 46.8391 136.69 46.9809 136.354 47.185C136.018 47.3891 135.736 47.6511 135.527 47.9537C135.319 48.2563 135.187 48.5929 135.143 48.9413C134.891 50.4129 136.049 51.961 137.216 52.9621C138.502 54.0638 142.137 55.254 142.592 55.3987C142.246 56.3557 141.9 57.2805 141.558 58.153C141.305 58.7963 141.057 59.4128 140.813 60.0025L142.18 60.6258C142.436 59.9623 142.697 59.2667 142.963 58.5309C143.319 57.5619 143.674 56.5205 144.026 55.451C145.272 55.5704 146.525 55.6282 147.779 55.6239C148.253 57.1639 150.351 59.6809 150.626 60.0025C149.715 60.6418 148.828 61.249 147.973 61.8159C147.523 62.1175 147.091 62.3949 146.664 62.6763L148.087 63.3317L148.88 62.7889C149.805 62.1496 150.778 61.446 151.77 60.7182C152.135 60.9796 155.139 63.0985 156.899 63.5328C158.498 63.9107 160.657 64.0153 162.057 63.1307C162.394 62.9277 162.677 62.6668 162.887 62.3651C163.098 62.0633 163.23 61.7274 163.277 61.3793C163.324 61.0311 163.284 60.6785 163.16 60.3443C163.036 60.0101 162.83 59.7019 162.555 59.4396C160.857 57.8997 156.415 58.4505 154.408 59.2547C154.289 59.3029 153.07 59.9382 152.311 60.3483C152.714 60.0508 153.108 59.7613 153.521 59.4477C154.341 58.8365 155.134 58.2012 155.993 57.5257C156.391 57.184 156.799 56.8422 157.208 56.4964C157.616 56.1506 158.009 55.7566 158.418 55.3867C159.338 54.5101 160.221 53.5854 161.084 52.6405C161.72 53.2436 164.017 55.3666 165.535 55.9496C167.054 56.5326 169.165 56.9105 170.707 56.1989C171.077 56.0415 171.403 55.82 171.664 55.549C171.926 55.2779 172.117 54.9632 172.226 54.6253C172.335 54.2874 172.358 53.934 172.295 53.5879C172.232 53.2418 172.084 52.9108 171.861 52.6163C170.437 50.8753 165.972 50.8512 163.841 51.386C163.708 51.4181 162.228 51.9489 161.426 52.2545C161.938 51.6795 162.456 51.1085 162.959 50.5135C164.382 48.7966 165.806 47.0234 167.191 45.2583L168.487 43.65C168.714 43.8711 171.377 46.4645 173.075 47.0958C174.589 47.6748 176.705 48.0568 178.247 47.3411C178.617 47.1846 178.944 46.9638 179.206 46.6931C179.468 46.4224 179.659 46.108 179.768 45.7702C179.877 45.4325 179.9 45.0791 179.837 44.7332C179.774 44.3872 179.625 44.0565 179.401 43.7626C177.977 42.0216 173.512 41.9974 171.381 42.5322C171.22 42.5724 169.094 43.3364 168.567 43.5535C169.516 42.3714 170.465 41.2013 171.49 40.0795C172.838 38.5598 174.301 37.116 175.87 35.7572C175.975 35.8577 178.741 38.5717 180.482 39.2231C181.996 39.8021 184.112 40.1841 185.655 39.4724C186.024 39.315 186.35 39.0936 186.611 38.8225C186.873 38.5514 187.064 38.2367 187.173 37.8988C187.282 37.561 187.306 37.2075 187.243 36.8614C187.18 36.5153 187.031 36.1843 186.808 35.8899C185.384 34.1489 180.914 34.1247 178.788 34.6595C178.618 34.6997 176.335 35.524 175.941 35.7009C176.031 35.6205 176.117 35.532 176.212 35.4556C177.823 34.1306 179.57 32.929 181.431 31.8651C182.456 31.266 183.477 30.7433 184.478 30.2567C184.952 30.8036 187.04 33.2844 188.53 34.0323C190.02 34.7801 192.013 35.3229 193.636 34.76C194.024 34.6392 194.377 34.4503 194.673 34.2058C194.969 33.9612 195.201 33.6665 195.353 33.3409C195.506 33.0152 195.575 32.6661 195.557 32.3161C195.539 31.9662 195.434 31.6234 195.249 31.3102C194.077 29.4486 189.622 29.0063 187.439 29.34C187.32 29.34 186.134 29.6536 185.275 29.8828C185.75 29.6657 186.2 29.4365 186.642 29.2395C188.302 28.4876 189.878 27.8885 191.278 27.3658C192.075 27.0723 192.801 26.823 193.489 26.5978C194.262 26.9356 197.413 28.2705 199.112 28.3509C200.811 28.4313 202.908 28.1378 204.037 27.0039C204.316 26.7451 204.527 26.4394 204.656 26.1068C204.785 25.7742 204.83 25.4222 204.788 25.0739C204.746 24.7255 204.618 24.3886 204.412 24.0851C204.205 23.7816 203.926 23.5185 203.591 23.3128C201.541 22.1066 197.347 23.4616 195.586 24.6116C195.434 24.7121 193.271 26.4973 193.309 26.5174H193.356C192.692 26.7265 191.98 26.9557 191.211 27.221C189.788 27.7156 188.203 28.2906 186.518 29.0143C184.695 29.7708 182.926 30.6194 181.223 31.5555C179.302 32.5967 177.495 33.7808 175.823 35.0938L175.766 35.142C176.122 34.6032 177.061 33.0713 177.118 32.9466C177.915 31.1896 178.228 27.3939 176.292 26.0751C175.963 25.8629 175.585 25.7118 175.183 25.6317C174.78 25.5517 174.362 25.5444 173.956 25.6104C173.55 25.6764 173.165 25.8142 172.826 26.0148C172.487 26.2155 172.202 26.4744 171.989 26.7747C171.04 28.0212 171.315 29.8386 171.879 31.1614C172.515 32.6531 175.353 35.1098 175.581 35.3069C173.918 36.6777 172.365 38.1405 170.93 39.6855C170.091 40.5861 169.279 41.5109 168.477 42.4478C168.767 41.9733 169.023 41.5471 169.051 41.4828C169.844 39.7257 170.162 35.9341 168.221 34.6153C167.892 34.4031 167.515 34.2521 167.112 34.172C166.71 34.092 166.293 34.0847 165.887 34.1508C165.481 34.2168 165.096 34.3546 164.758 34.5552C164.419 34.7558 164.134 35.0147 163.922 35.3149C162.973 36.5613 163.248 38.3787 163.813 39.7016C164.377 41.0244 166.755 43.1796 167.391 43.7224C167.087 44.0842 166.778 44.4421 166.48 44.8039C165.028 46.5449 163.594 48.29 162.123 49.9626C161.606 50.5537 161.07 51.1206 160.539 51.6875C160.795 51.2855 161.013 50.9075 161.037 50.8512C161.829 49.0941 162.142 45.3025 160.206 43.9797C159.877 43.7674 159.499 43.6164 159.097 43.5363C158.694 43.4562 158.276 43.4489 157.87 43.515C157.464 43.581 157.079 43.7188 156.74 43.9194C156.401 44.12 156.116 44.379 155.903 44.6793C154.954 45.9257 155.234 47.7431 155.798 49.066C156.363 50.3888 158.508 52.3349 159.262 53.0023C158.693 53.5693 158.128 54.1362 157.549 54.6669C157.141 55.0168 156.78 55.3786 156.349 55.7164L155.11 56.7216C154.294 57.3408 153.454 57.9801 152.643 58.5631C152.078 58.9652 151.532 59.3672 150.987 59.7412C151.509 59.1582 152.505 58.0002 152.576 57.8956C153.478 56.4264 153.922 54.7864 153.867 53.131C153.975 52.9709 154.066 52.8027 154.137 52.6284C154.287 52.3019 154.353 51.9524 154.333 51.6027C154.312 51.253 154.204 50.9109 154.017 50.5988C153.83 50.2866 153.567 50.0113 153.246 49.7908C152.925 49.5704 152.553 49.4097 152.154 49.3193C149.734 48.8288 146.389 51.3619 145.24 52.9702C145.169 53.0667 144.566 54.1764 144.201 54.864C144.343 54.4257 144.486 53.9995 144.623 53.5492C144.908 52.6525 145.16 51.7559 145.435 50.7869C145.549 50.3164 145.663 49.842 145.776 49.3595C145.89 48.877 145.966 48.3704 146.061 47.8718C146.26 46.7098 146.398 45.5277 146.503 44.3295C147.428 44.5386 150.721 45.2382 152.367 45.013C154.014 44.7879 156.021 44.1164 156.842 42.8016C157.048 42.498 157.175 42.1612 157.217 41.813C157.259 41.4649 157.214 41.1131 157.085 40.7807C156.957 40.4482 156.747 40.1423 156.469 39.883C156.192 39.6237 155.853 39.4167 155.476 39.2754C153.169 38.4712 149.411 40.558 147.983 41.9974C147.893 42.0899 147.005 43.2037 146.531 43.851C146.588 43.1313 146.65 42.4156 146.678 41.6838C146.763 39.5809 146.768 37.4459 146.787 35.3189C146.787 34.6675 146.787 34.0202 146.82 33.3688C147.148 33.4452 151.044 34.3459 152.889 34.0966C154.527 33.8714 156.538 33.2 157.359 31.8852C157.566 31.5817 157.694 31.2448 157.736 30.8965C157.779 30.5482 157.734 30.1963 157.605 29.8636C157.476 29.5309 157.266 29.225 156.988 28.9657C156.71 28.7065 156.371 28.4997 155.993 28.3589C153.687 27.5548 149.928 29.6416 148.5 31.081C148.396 31.1896 147.119 32.822 146.82 33.2482C146.849 31.8168 146.887 30.3934 146.996 28.9862C147.132 27.0884 147.412 25.2 147.836 23.3329C147.988 23.3691 152.05 24.3261 153.938 24.0687C155.575 23.8436 157.592 23.1721 158.413 21.8573C158.619 21.5539 158.747 21.217 158.79 20.8687C158.832 20.5204 158.787 20.1684 158.658 19.8358C158.529 19.5031 158.319 19.1972 158.041 18.9379C157.764 18.6787 157.425 18.4719 157.046 18.3311C154.74 17.5269 150.982 19.6137 149.554 21.0532C149.44 21.1698 148.073 22.9228 147.85 23.2566C147.874 23.148 147.888 23.0354 147.917 22.9268C148.402 21.0647 149.081 19.2428 149.947 17.4827C150.422 16.5056 150.92 15.5929 151.442 14.7164C152.178 14.9576 155.551 16.0433 157.279 15.9669C159.006 15.8905 161.023 15.42 162.024 14.1897C162.265 13.9074 162.433 13.5855 162.518 13.2448C162.604 12.904 162.604 12.5519 162.519 12.2111C162.434 11.8703 162.266 11.5483 162.025 11.2659C161.785 10.9834 161.477 10.7467 161.122 10.571C158.935 9.56979 154.93 11.2826 153.326 12.5814C153.236 12.6537 152.443 13.4539 151.874 14.0449C152.116 13.6428 152.349 13.2408 152.595 12.8709C153.492 11.4676 154.413 10.2332 155.243 9.14359C155.718 8.52439 156.164 7.97756 156.586 7.46692C157.454 7.3865 160.951 7.02865 162.418 6.30089C163.884 5.57313 165.445 4.35081 165.649 2.87518C165.712 2.52893 165.688 2.17533 165.58 1.83734C165.471 1.49936 165.279 1.18456 165.017 0.913412C164.756 0.642265 164.429 0.420837 164.06 0.263524C163.691 0.10621 163.286 0.0165306 162.873 0.00031564C160.387 -0.0358714 157.763 3.04807 157.046 4.82526C156.985 4.98207 156.339 7.483 156.387 7.47898H156.439C156.016 7.96148 155.575 8.48418 155.105 9.0873C154.251 10.1608 153.293 11.3872 152.358 12.7744C151.331 14.2647 150.407 15.8046 149.592 17.3862C148.668 19.1515 147.931 20.9828 147.39 22.8585V22.9268C147.338 22.3117 147.119 20.5948 147.086 20.4621C146.612 18.6246 144.4 15.3155 141.923 15.1185C141.511 15.0956 141.097 15.1466 140.709 15.2682C140.321 15.3898 139.967 15.5793 139.671 15.8243C139.375 16.0693 139.144 16.3644 138.991 16.6903C138.839 17.0162 138.769 17.3657 138.787 17.7159C138.773 19.1674 140.196 20.5465 141.53 21.3869Z" fill="black"/>
<path d="M184.625 29.8266C184.648 29.8587 186.698 27.981 186.812 27.8523C188.126 26.3325 189.612 22.7459 188.155 21.017C187.903 20.7394 187.586 20.5097 187.223 20.3429C186.86 20.1762 186.459 20.0761 186.047 20.0491C185.635 20.0222 185.222 20.0691 184.833 20.1866C184.444 20.3042 184.088 20.4899 183.789 20.7315C182.475 21.7206 182.186 23.5461 182.318 24.9373C182.475 26.6019 184.625 29.8225 184.625 29.8266Z" fill="black"/>
</g>
<path d="M157.682 108.795L118.601 92.0763L158.351 24.9492L197.432 41.6677L157.682 108.795Z" fill="#355B5E" stroke="#263238" stroke-miterlimit="10"/>
<path d="M188.758 48.2416C188.137 47.9764 187.583 47.6098 187.129 47.1628C186.675 46.7158 186.329 46.1972 186.113 45.6369C185.896 45.0765 185.811 44.4854 185.865 43.8974C185.918 43.3094 186.108 42.7361 186.424 42.2104C186.524 42.0473 186.635 41.8889 186.756 41.7359L164.335 32.1504C164.265 32.3253 164.181 32.4959 164.083 32.661C163.452 33.7204 162.35 34.5239 161.02 34.8949C159.69 35.2659 158.24 35.1739 156.989 34.6393C156.891 34.5985 156.796 34.5528 156.705 34.5026L126.687 85.265L126.986 85.3776C128.236 85.9125 129.184 86.8462 129.622 87.9735C130.06 89.1007 129.952 90.3292 129.321 91.3887C129.221 91.5545 129.109 91.7144 128.984 91.8671L151.423 101.465C151.495 101.29 151.579 101.12 151.675 100.954C151.988 100.428 152.421 99.9589 152.949 99.5745C153.476 99.1901 154.088 98.8977 154.749 98.7139C155.411 98.5302 156.108 98.4587 156.802 98.5037C157.496 98.5486 158.172 98.7091 158.793 98.9759C158.987 99.06 159.174 99.1554 159.353 99.2614L189.361 48.4426C189.155 48.3873 188.953 48.3201 188.758 48.2416ZM153.744 73.4439C152.216 72.7897 150.952 71.7664 150.11 70.5034C149.269 69.2403 148.888 67.7943 149.017 66.348C149.145 64.9017 149.777 63.5202 150.832 62.378C151.887 61.2359 153.318 60.3845 154.944 59.9314C156.57 59.4783 158.318 59.444 159.967 59.8326C161.616 60.2213 163.092 61.0155 164.208 62.1149C165.325 63.2143 166.031 64.5695 166.239 66.0092C166.446 67.4489 166.145 68.9084 165.374 70.2031C164.338 71.9393 162.532 73.2559 160.351 73.8636C158.17 74.4713 155.793 74.3203 153.744 73.4439Z" fill="white" stroke="#263238" stroke-linecap="round" stroke-linejoin="round"/>
<path d="M157.136 108.94L120.423 88.7352L168.515 25.645L205.228 45.8495L157.136 108.94Z" fill="#355B5E" stroke="#263238" stroke-miterlimit="10"/>
<path d="M195.766 51.5908C194.591 50.9442 193.768 49.9288 193.476 48.7677C193.184 47.6067 193.448 46.395 194.21 45.3988C194.332 45.2457 194.463 45.098 194.604 44.9565L173.526 33.3525C173.431 33.5198 173.325 33.6822 173.208 33.8391C172.832 34.3337 172.345 34.7606 171.774 35.0955C171.203 35.4303 170.56 35.6665 169.881 35.7905C169.202 35.9145 168.501 35.9238 167.818 35.818C167.135 35.7123 166.483 35.4934 165.9 35.174C165.81 35.1257 165.725 35.0654 165.635 35.0131L129.33 82.7037C129.424 82.7479 129.519 82.7921 129.61 82.8444C130.194 83.1643 130.699 83.579 131.094 84.0646C131.489 84.5503 131.767 85.0973 131.911 85.6742C132.056 86.2512 132.064 86.8466 131.937 87.4264C131.809 88.0062 131.547 88.5588 131.166 89.0525C131.045 89.2076 130.914 89.3567 130.772 89.4988L151.85 101.099C151.946 100.932 152.052 100.77 152.168 100.612C152.932 99.6175 154.131 98.9202 155.501 98.6737C156.871 98.4272 158.3 98.6515 159.475 99.2975C159.656 99.4009 159.83 99.5123 159.997 99.6312L196.336 51.8602C196.14 51.7799 195.95 51.6899 195.766 51.5908ZM157.739 73.4358C156.302 72.6457 155.174 71.5123 154.497 70.179C153.82 68.8456 153.626 67.3722 153.937 65.945C154.249 64.5178 155.053 63.201 156.248 62.1611C157.443 61.1212 158.975 60.4049 160.65 60.1029C162.326 59.8009 164.069 59.9266 165.66 60.4642C167.251 61.0019 168.619 61.9272 169.589 63.1233C170.559 64.3194 171.089 65.7324 171.112 67.1837C171.134 68.635 170.648 70.0593 169.715 71.2766C168.465 72.9084 166.501 74.0526 164.255 74.4575C162.009 74.8624 159.665 74.4949 157.739 73.4358Z" fill="white" stroke="#263238" stroke-linecap="round" stroke-linejoin="round"/>
<path d="M156.42 109.048L123.356 84.7304L181.294 27.8926L214.353 52.2063L156.42 109.048Z" fill="#355B5E" stroke="#263238" stroke-miterlimit="10"/>
<path d="M204.042 56.7818C203.475 56.3674 203.018 55.8549 202.703 55.2788C202.388 54.7027 202.221 54.0762 202.215 53.4413C202.209 52.8063 202.363 52.1775 202.666 51.597C202.97 51.0165 203.416 50.4977 203.976 50.0752L184.995 36.115C184.874 36.2688 184.743 36.4165 184.601 36.5573C184.147 37.0016 183.593 37.3657 182.972 37.6286C182.351 37.8916 181.676 38.0483 180.983 38.0897C180.291 38.1312 179.596 38.0566 178.937 37.8702C178.279 37.6838 177.671 37.3894 177.147 37.0036C177.061 36.9393 176.985 36.8749 176.909 36.8106L133.164 79.8049C133.249 79.8612 133.34 79.9134 133.42 79.9778C133.988 80.3923 134.445 80.9047 134.76 81.4808C135.075 82.0569 135.241 82.6834 135.247 83.3183C135.254 83.9533 135.1 84.5821 134.796 85.1626C134.493 85.7431 134.046 86.2619 133.487 86.6844L152.467 100.645C152.589 100.491 152.72 100.344 152.861 100.202C153.346 99.716 153.95 99.3242 154.63 99.0538C155.311 98.7833 156.052 98.6405 156.803 98.6351C157.555 98.6298 158.299 98.762 158.985 99.0228C159.67 99.2836 160.281 99.6667 160.776 100.146L204.564 57.1236C204.381 57.0205 204.206 56.9063 204.042 56.7818ZM162.816 73.9586C161.523 73.0075 160.591 71.7526 160.139 70.3526C159.687 68.9526 159.735 67.4705 160.277 66.0937C160.819 64.7168 161.831 63.5072 163.184 62.6176C164.538 61.7281 166.172 61.1986 167.881 61.0963C169.589 60.9939 171.295 61.3232 172.783 62.0425C174.271 62.7618 175.474 63.8388 176.239 65.1373C177.004 66.4358 177.298 67.8975 177.083 69.3374C176.868 70.7774 176.153 72.1309 175.03 73.2269C174.285 73.9548 173.378 74.5511 172.361 74.9819C171.344 75.4126 170.237 75.6693 169.102 75.7373C167.968 75.8052 166.829 75.6831 165.751 75.3779C164.672 75.0728 163.675 74.5905 162.816 73.9586Z" fill="white" stroke="#263238" stroke-linecap="round" stroke-linejoin="round"/>
<path d="M156.32 110.873L127.394 83.0335L193.779 33.2642L222.705 61.1081L156.32 110.873Z" fill="#355B5E" stroke="#263238" stroke-miterlimit="10"/>
<path d="M211.786 64.4737C210.862 63.5823 210.393 62.4165 210.482 61.2321C210.571 60.0478 211.211 58.9418 212.261 58.157C212.426 58.035 212.601 57.9222 212.783 57.8193L196.175 41.8326C195.682 42.3118 195.074 42.6961 194.392 42.9593C193.709 43.2226 192.968 43.3588 192.218 43.3588C191.467 43.3588 190.726 43.2226 190.043 42.9593C189.361 42.6961 188.753 42.3118 188.26 41.8326C188.184 41.7602 188.122 41.6879 188.056 41.6155L137.89 79.2581C137.966 79.3264 138.047 79.3868 138.118 79.4591C138.577 79.9003 138.928 80.4136 139.152 80.9698C139.376 81.526 139.469 82.1142 139.425 82.7007C139.381 83.2873 139.201 83.8608 138.895 84.3884C138.59 84.916 138.164 85.3875 137.644 85.7758C137.479 85.8965 137.306 86.0093 137.126 86.1135L153.734 102.1C153.881 101.957 154.04 101.822 154.209 101.698C154.729 101.309 155.335 101.011 155.991 100.821C156.648 100.63 157.342 100.552 158.035 100.589C158.727 100.626 159.404 100.779 160.027 101.038C160.649 101.298 161.206 101.659 161.664 102.1C161.807 102.239 161.94 102.385 162.062 102.538L212.247 64.8556C212.084 64.7362 211.931 64.6087 211.786 64.4737ZM168.221 76.8215C167.091 75.7326 166.367 74.3841 166.14 72.9464C165.914 71.5088 166.196 70.0466 166.951 68.7448C167.705 67.4429 168.898 66.3598 170.379 65.6324C171.86 64.905 173.562 64.5659 175.27 64.6581C176.978 64.7503 178.615 65.2696 179.975 66.1503C181.335 67.031 182.357 68.2336 182.91 69.6061C183.463 70.9785 183.524 72.4592 183.084 73.8609C182.645 75.2626 181.725 76.5223 180.44 77.4809C179.586 78.1202 178.591 78.6104 177.513 78.9234C176.435 79.2364 175.295 79.3659 174.157 79.3047C173.02 79.2434 171.908 78.9925 170.885 78.5664C169.863 78.1403 168.949 77.5473 168.198 76.8215H168.221Z" fill="white" stroke="#263238" stroke-linecap="round" stroke-linejoin="round"/>
<path d="M147.841 141.617L229.262 112.776C229.953 112.528 230.501 112.059 230.786 111.471C231.072 110.883 231.071 110.223 230.786 109.635L210.505 68.5187C210.213 67.9322 209.658 67.4674 208.963 67.2256C208.268 66.9839 207.489 66.9847 206.794 67.228L125.372 96.0611C124.681 96.3088 124.134 96.7777 123.849 97.3657C123.563 97.9538 123.564 98.6134 123.849 99.2013L144.13 140.326C144.422 140.912 144.976 141.377 145.671 141.619C146.367 141.861 147.146 141.86 147.841 141.617Z" fill="#263238" stroke="#263238" stroke-linecap="round" stroke-linejoin="round"/>
<path d="M133.985 104.59L138.888 106.397C140.093 106.841 141.495 106.373 142.019 105.351L144.151 101.197C144.675 100.176 144.123 98.9874 142.917 98.5433L138.015 96.7372C136.809 96.293 135.407 96.7611 134.883 97.7826L132.751 101.937C132.227 102.958 132.78 104.146 133.985 104.59Z" fill="white" stroke="#263238" stroke-width="1.00319" stroke-miterlimit="10"/>
<path d="M212.893 111.026L222.065 107.778L220.479 104.562L211.306 107.81L212.893 111.026Z" fill="white" stroke="#263238" stroke-miterlimit="10"/>
<path d="M200.718 115.343L209.89 112.095L208.304 108.878L199.131 112.126L200.718 115.343Z" fill="white" stroke="#263238" stroke-miterlimit="10"/>
<path d="M188.541 119.651L197.713 116.403L196.127 113.187L186.954 116.435L188.541 119.651Z" fill="white" stroke="#263238" stroke-miterlimit="10"/>
<path d="M176.366 123.963L185.538 120.715L183.952 117.499L174.779 120.747L176.366 123.963Z" fill="white" stroke="#263238" stroke-miterlimit="10"/>
<path d="M164.191 128.276L173.363 125.028L171.777 121.811L162.605 125.059L164.191 128.276Z" fill="white" stroke="#263238" stroke-miterlimit="10"/>
<path d="M152.012 132.588L161.184 129.34L159.598 126.123L150.425 129.371L152.012 132.588Z" fill="white" stroke="#263238" stroke-miterlimit="10"/>
<path d="M198.304 103.605L215.331 97.5757C216.131 97.2923 216.509 96.5127 216.174 95.8345L211.174 85.6955C210.839 85.0173 209.919 84.6972 209.119 84.9807L192.092 91.01C191.292 91.2934 190.914 92.0729 191.249 92.7511L196.249 102.89C196.583 103.568 197.503 103.888 198.304 103.605Z" fill="white" stroke="#263238" stroke-miterlimit="10"/>
<path d="M162.692 91.3461L206.338 75.8906L205.413 74.0134L161.766 89.4689L162.692 91.3461Z" fill="white" stroke="#263238" stroke-miterlimit="10"/>
<path d="M149.236 23.7794V149.027C149.235 150.677 148.46 152.26 147.083 153.427C145.706 154.594 143.838 155.25 141.89 155.251H78.0256C76.0779 155.25 74.2103 154.594 72.833 153.427C71.4557 152.26 70.6814 150.677 70.6802 149.027V23.7753C70.6802 22.1256 71.4536 20.5435 72.8302 19.377C74.2069 18.2105 76.074 17.5552 78.0209 17.5552H105.434V17.6276C106.117 19.7103 107.688 21.0653 109.434 21.0653H110.435C112.181 21.0653 113.757 19.7103 114.435 17.6276L114.464 17.5552H141.89C142.855 17.5552 143.81 17.7162 144.701 18.029C145.593 18.3418 146.402 18.8002 147.085 19.3782C147.767 19.9562 148.308 20.6423 148.677 21.3975C149.046 22.1526 149.236 22.962 149.236 23.7794Z" fill="white" stroke="#263238" stroke-linecap="round" stroke-linejoin="round"/>
<path d="M149.236 54.1926V23.7794C149.236 22.962 149.046 22.1526 148.677 21.3975C148.308 20.6423 147.767 19.9562 147.085 19.3782C146.402 18.8002 145.593 18.3418 144.701 18.029C143.81 17.7162 142.855 17.5552 141.89 17.5552H114.511L114.483 17.6276C113.799 19.7103 112.229 21.0653 110.482 21.0653H109.481C107.735 21.0653 106.16 19.7103 105.481 17.6276V17.5552H78.0209C76.074 17.5552 74.2069 18.2105 72.8302 19.377C71.4536 20.5435 70.6802 22.1256 70.6802 23.7753V54.1926H149.236Z" fill="#355B5E" stroke="#263238" stroke-miterlimit="10"/>
<path d="M132.932 94.718H86.4909C83.975 94.718 81.9355 96.4462 81.9355 98.578V110.821C81.9355 112.953 83.975 114.681 86.4909 114.681H132.932C135.447 114.681 137.487 112.953 137.487 110.821V98.578C137.487 96.4462 135.447 94.718 132.932 94.718Z" fill="#355B5E" stroke="#263238" stroke-miterlimit="10"/>
<path d="M149.236 29.6055V23.7794C149.236 22.962 149.046 22.1526 148.677 21.3975C148.308 20.6423 147.767 19.9562 147.085 19.3782C146.402 18.8002 145.593 18.3418 144.701 18.029C143.81 17.7162 142.855 17.5552 141.89 17.5552H114.511L114.483 17.6276C113.799 19.7103 112.229 21.0653 110.482 21.0653H109.481C107.735 21.0653 106.16 19.7103 105.481 17.6276V17.5552H78.0209C76.074 17.5552 74.2069 18.2105 72.8302 19.377C71.4536 20.5435 70.6802 22.1256 70.6802 23.7753V29.6055H149.236Z" fill="#DBDBDB" stroke="#263238" stroke-linecap="round" stroke-linejoin="round"/>
<path d="M70.6802 148.046V149.027C70.6814 150.677 71.4557 152.26 72.833 153.427C74.2103 154.594 76.0779 155.25 78.0256 155.251H141.89C143.838 155.25 145.706 154.594 147.083 153.427C148.46 152.26 149.235 150.677 149.236 149.027V148.046H70.6802Z" fill="#DBDBDB" stroke="#263238" stroke-linecap="round" stroke-linejoin="round"/>
<path d="M154.232 53.6938V41.2053H152.899V25.1704C152.898 22.552 151.669 20.0413 149.484 18.1902C147.298 16.3392 144.335 15.2993 141.245 15.2993H78.6707C75.5806 15.2993 72.6171 16.3392 70.4317 18.1902C68.2462 20.0413 67.0179 22.552 67.0166 25.1704V152.428C67.0179 155.047 68.2462 157.557 70.4317 159.408C72.6171 161.259 75.5806 162.299 78.6707 162.299H141.245C144.335 162.299 147.298 161.259 149.484 159.408C151.669 157.557 152.898 155.047 152.899 152.428V64.373H154.232V56.9627H152.899V53.6938H154.232ZM149.236 145.368C149.236 147.986 148.008 150.497 145.824 152.349C143.639 154.201 140.676 155.242 137.586 155.243H82.3292C79.2391 155.242 76.2761 154.201 74.0916 152.349C71.907 150.497 70.6798 147.986 70.6798 145.368V27.426C70.6798 24.8081 71.9072 22.2973 74.0919 20.4461C76.2765 18.595 79.2396 17.555 82.3292 17.555H105.433V17.6274C106.117 19.7101 107.687 21.0651 109.433 21.0651H110.435C112.181 21.0651 113.756 19.7101 114.435 17.6274L114.463 17.555H137.563C140.652 17.555 143.615 18.595 145.8 20.4461C147.985 22.2973 149.212 24.8081 149.212 27.426L149.236 145.368Z" fill="#355B5E" stroke="#263238" stroke-linecap="round" stroke-linejoin="round"/>
<path d="M140.31 16.6785H79.6051C76.625 16.6785 73.767 17.6816 71.6597 19.4672C69.5525 21.2527 68.3687 23.6745 68.3687 26.1997V151.419C68.3687 153.944 69.5525 156.366 71.6597 158.152C73.767 159.937 76.625 160.94 79.6051 160.94H140.31C143.29 160.94 146.148 159.937 148.255 158.152C150.362 156.366 151.546 153.944 151.546 151.419V26.1796C151.54 23.6579 150.353 21.2413 148.247 19.4601C146.14 17.6788 143.286 16.6785 140.31 16.6785ZM149.235 145.746C149.235 148.271 148.052 150.693 145.945 152.48C143.837 154.266 140.979 155.27 137.999 155.271H81.916C78.9355 155.27 76.0775 154.266 73.9703 152.48C71.8632 150.693 70.6795 148.271 70.6795 145.746V27.0722C70.6795 25.8224 70.9701 24.5848 71.5345 23.4301C72.099 22.2754 72.9263 21.2263 73.9692 20.3425C75.0122 19.4588 76.2504 18.7577 77.6131 18.2795C78.9758 17.8012 80.4363 17.555 81.9113 17.555H105.433V17.6274C106.116 19.7101 107.687 21.0651 109.433 21.0651H110.434C112.181 21.0651 113.756 19.7101 114.434 17.6274L114.463 17.555H137.999C140.979 17.555 143.837 18.5581 145.944 20.3437C148.051 22.1293 149.235 24.551 149.235 27.0762V145.746Z" fill="#263238" stroke="#263238" stroke-linecap="round" stroke-linejoin="round"/>
<path d="M110.809 18.0255C110.809 17.8416 110.745 17.6619 110.624 17.509C110.504 17.3562 110.332 17.2372 110.132 17.167C109.931 17.0968 109.71 17.0787 109.498 17.1148C109.285 17.151 109.09 17.2398 108.937 17.3701C108.783 17.5004 108.679 17.6663 108.638 17.8468C108.596 18.0272 108.618 18.2141 108.702 18.3837C108.786 18.5534 108.927 18.6981 109.108 18.7997C109.289 18.9013 109.501 18.9551 109.718 18.9543C109.862 18.9543 110.004 18.9302 110.137 18.8835C110.27 18.8368 110.39 18.7683 110.491 18.682C110.593 18.5957 110.673 18.4933 110.728 18.3806C110.782 18.2679 110.81 18.1473 110.809 18.0255Z" fill="white"/>
<path d="M77.6601 21.5799C77.6601 22.5168 76.4169 22.8545 76.4121 23.5903V23.6386H77.6174V23.916H76.0088V23.6506C76.0088 22.6454 77.252 22.4444 77.252 21.5759C77.252 21.2542 77.1286 21.0854 76.825 21.0854C76.5213 21.0854 76.3931 21.2703 76.3931 21.5437V21.8212H76.0088V21.5839C76.0088 21.1095 76.265 20.7798 76.8344 20.7798C77.4039 20.7798 77.6601 21.1014 77.6601 21.5799Z" fill="#263238"/>
<path d="M79.672 21.5759V21.6523C79.6895 21.7859 79.6556 21.9208 79.5752 22.0368C79.4948 22.1527 79.3723 22.2435 79.226 22.2956C79.3728 22.3472 79.4957 22.4379 79.5762 22.5539C79.6567 22.67 79.6903 22.8052 79.672 22.9389V23.1802C79.672 23.6546 79.4063 23.9843 78.8416 23.9843C78.277 23.9843 78.0207 23.6747 78.0207 23.1802V22.9631H78.4003V23.2003C78.4003 23.4817 78.5379 23.6506 78.8321 23.6506C79.1263 23.6506 79.2639 23.4858 79.2639 23.1681V22.9309C79.2639 22.6213 79.1074 22.4765 78.7894 22.4685H78.5712V22.1549H78.8132C78.8767 22.1554 78.9396 22.1443 78.9976 22.1223C79.0556 22.1004 79.1073 22.068 79.1492 22.0276C79.1911 21.9871 79.2222 21.9395 79.2404 21.8879C79.2585 21.8363 79.2633 21.782 79.2545 21.7287V21.5879C79.2545 21.2663 79.1216 21.1014 78.8226 21.1014C78.5237 21.1014 78.3908 21.2783 78.3908 21.5558V21.7166H78.0112V21.5759C78.0112 21.0974 78.2722 20.7717 78.8321 20.7717C79.3921 20.7717 79.672 21.1014 79.672 21.5759Z" fill="#263238"/>
<path d="M80.4646 21.8091V22.2393H80.0708V21.8091H80.4646ZM80.4646 23.5018V23.916H80.0708V23.5139L80.4646 23.5018Z" fill="#263238"/>
<path d="M81.2949 22.0905C81.3486 22.0089 81.4281 21.9415 81.5245 21.8961C81.6209 21.8506 81.7304 21.8288 81.8406 21.8332C82.3151 21.8332 82.5239 22.1267 82.5239 22.569V23.1802C82.5239 23.6546 82.2581 23.9843 81.6935 23.9843C81.1288 23.9843 80.8726 23.6747 80.8726 23.1802V22.9711H81.2522V23.2003C81.2522 23.4817 81.3898 23.6506 81.684 23.6506C81.9782 23.6506 82.1158 23.4817 82.1158 23.2003V22.5971C82.1158 22.3157 81.9782 22.1468 81.684 22.1468C81.6308 22.1452 81.5779 22.1526 81.5282 22.1686C81.4785 22.1846 81.433 22.2089 81.3946 22.24C81.3561 22.2711 81.3254 22.3084 81.3042 22.3497C81.283 22.391 81.2717 22.4355 81.2711 22.4805V22.5529H80.8868L80.9864 20.824H82.41V21.1336H81.3281L81.2949 22.0905Z" fill="#263238"/>
<path d="M84.5593 21.5678V21.6282H84.175V21.5477C84.175 21.2663 84.0421 21.1014 83.7431 21.1014C83.4442 21.1014 83.2971 21.2703 83.2971 21.604V22.3077C83.3391 22.2055 83.4193 22.1176 83.5254 22.0574C83.6316 21.9972 83.758 21.9679 83.8855 21.9739C84.36 21.9739 84.5688 22.2634 84.5688 22.7097V23.1842C84.5688 23.6587 84.2936 23.9884 83.7289 23.9884C83.1642 23.9884 82.8843 23.6788 82.8843 23.1842V21.5759C82.8843 21.0813 83.15 20.7717 83.7289 20.7717C84.3078 20.7717 84.5593 21.1014 84.5593 21.5678ZM83.2971 22.7339V23.2003C83.2971 23.4817 83.43 23.6506 83.7289 23.6506C84.0279 23.6506 84.1655 23.4817 84.1655 23.2003V22.7339C84.1655 22.4524 84.0231 22.2835 83.7289 22.2835C83.4347 22.2835 83.2971 22.4524 83.2971 22.7339Z" fill="#263238"/>
<path d="M124.633 21.7046H123.598V23.8999H124.633V21.7046Z" fill="#263238"/>
<path d="M126.013 21.2661H124.979V23.8997H126.013V21.2661Z" fill="#263238"/>
<path d="M127.394 20.9526H126.36V23.8999H127.394V20.9526Z" fill="#263238"/>
<path d="M128.779 20.4097H127.745V23.8997H128.779V20.4097Z" fill="#263238"/>
<path d="M141.605 23.8436H135.389V20.627H141.605V23.8436ZM135.731 23.5501H141.259V20.9124H135.731V23.5501Z" fill="#263238"/>
<path d="M139.532 21.2341H136.248V23.2325H139.532V21.2341Z" fill="#263238"/>
<path d="M142.17 21.8533H141.387V22.6132H142.17V21.8533Z" fill="#263238"/>
<path d="M133.107 23.1401C133.065 23.1408 133.024 23.131 132.988 23.1119C131.721 22.4766 130.886 23.0677 130.848 23.1119C130.826 23.1292 130.799 23.1424 130.771 23.1508C130.742 23.1591 130.712 23.1625 130.682 23.1606C130.652 23.1587 130.622 23.1516 130.595 23.1398C130.568 23.128 130.545 23.1117 130.525 23.0918C130.504 23.0739 130.487 23.0526 130.476 23.0291C130.464 23.0057 130.458 22.9805 130.458 22.9551C130.458 22.9297 130.464 22.9045 130.476 22.8811C130.487 22.8576 130.504 22.8363 130.525 22.8184C130.573 22.7822 131.641 22.0142 133.206 22.7943C133.259 22.821 133.297 22.8644 133.312 22.9149C133.328 22.9653 133.318 23.0188 133.287 23.0637C133.266 23.0875 133.239 23.1068 133.208 23.1201C133.176 23.1334 133.142 23.1402 133.107 23.1401Z" fill="#263238"/>
<path d="M133.577 22.4805C133.535 22.4817 133.494 22.4719 133.458 22.4524C131.627 21.5316 130.398 22.4202 130.384 22.4524C130.36 22.4696 130.334 22.4827 130.305 22.4911C130.276 22.4995 130.245 22.5029 130.214 22.5012C130.184 22.4995 130.154 22.4928 130.126 22.4813C130.099 22.4698 130.074 22.4538 130.054 22.4343C130.033 22.4148 130.018 22.392 130.008 22.3674C129.998 22.3428 129.994 22.3168 129.996 22.2908C129.998 22.2649 130.006 22.2395 130.02 22.2162C130.033 22.1929 130.052 22.172 130.075 22.1549C130.075 22.1549 131.575 21.0692 133.696 22.1549C133.747 22.1823 133.785 22.2257 133.8 22.2758C133.815 22.326 133.806 22.3792 133.776 22.4243C133.75 22.4455 133.718 22.4615 133.684 22.4713C133.65 22.481 133.613 22.4842 133.577 22.4805Z" fill="#263238"/>
<path d="M133.999 21.7126C133.957 21.7128 133.916 21.7031 133.88 21.6845C131.565 20.5184 130.023 21.6161 129.956 21.6644C129.935 21.683 129.91 21.6978 129.881 21.7079C129.853 21.718 129.823 21.7232 129.792 21.7232C129.762 21.7232 129.732 21.718 129.704 21.7079C129.675 21.6978 129.65 21.683 129.629 21.6644C129.59 21.6251 129.571 21.5746 129.575 21.5236C129.58 21.4726 129.607 21.425 129.653 21.3909C129.653 21.3909 131.498 20.048 134.118 21.3668C134.17 21.3936 134.209 21.4369 134.224 21.4874C134.239 21.5379 134.23 21.5914 134.198 21.6362C134.176 21.6624 134.145 21.6832 134.111 21.6965C134.076 21.7099 134.037 21.7154 133.999 21.7126Z" fill="#263238"/>
<path d="M132.41 23.4695C132.411 23.5675 132.377 23.6635 132.314 23.7454C132.25 23.8272 132.16 23.8913 132.053 23.9293C131.946 23.9674 131.829 23.9777 131.715 23.9591C131.602 23.9405 131.497 23.8937 131.415 23.8247C131.333 23.7557 131.277 23.6676 131.254 23.5715C131.231 23.4755 131.243 23.3758 131.287 23.2852C131.331 23.1946 131.405 23.1172 131.502 23.0626C131.598 23.0081 131.711 22.979 131.826 22.979C131.98 22.979 132.128 23.0306 132.237 23.1224C132.347 23.2143 132.409 23.3391 132.41 23.4695Z" fill="#263238"/>
<path d="M89.0568 79.2727V66.5455H89.8722V79.2727H89.0568ZM91.8011 70.3636C91.7415 69.8598 91.4995 69.4688 91.0753 69.1903C90.651 68.9119 90.1307 68.7727 89.5142 68.7727C89.0634 68.7727 88.669 68.8456 88.331 68.9915C87.9962 69.1373 87.7344 69.3378 87.5455 69.593C87.3598 69.8482 87.267 70.1383 87.267 70.4631C87.267 70.7348 87.3317 70.9685 87.4609 71.1641C87.5935 71.3563 87.7625 71.517 87.968 71.6463C88.1735 71.7723 88.389 71.8767 88.6143 71.9595C88.8397 72.0391 89.0469 72.1037 89.2358 72.1534L90.2699 72.4318C90.535 72.5014 90.83 72.5975 91.1548 72.7202C91.483 72.8428 91.7962 73.0102 92.0945 73.2223C92.3961 73.4311 92.6446 73.6996 92.8402 74.0277C93.0357 74.3558 93.1335 74.7585 93.1335 75.2358C93.1335 75.786 92.9893 76.2831 92.701 76.7273C92.416 77.1714 91.9983 77.5244 91.4482 77.7862C90.9013 78.0481 90.2367 78.179 89.4545 78.179C88.7254 78.179 88.094 78.0613 87.5604 77.826C87.0301 77.5907 86.6125 77.2625 86.3075 76.8416C86.0059 76.4207 85.8352 75.9318 85.7955 75.375H87.0682C87.1013 75.7595 87.2306 76.0777 87.456 76.3295C87.6847 76.5781 87.973 76.7637 88.321 76.8864C88.6723 77.0057 89.0502 77.0653 89.4545 77.0653C89.9252 77.0653 90.3478 76.9891 90.7223 76.8366C91.0968 76.6809 91.3935 76.4654 91.6122 76.1903C91.831 75.9119 91.9403 75.5871 91.9403 75.2159C91.9403 74.8778 91.8459 74.6027 91.657 74.3906C91.468 74.1785 91.2195 74.0062 90.9112 73.8736C90.603 73.741 90.2699 73.625 89.9119 73.5256L88.6591 73.1676C87.8636 72.9389 87.2339 72.6125 86.7699 72.1882C86.3059 71.764 86.0739 71.2088 86.0739 70.5227C86.0739 69.9527 86.228 69.4555 86.5362 69.0312C86.8478 68.6037 87.2654 68.2723 87.7891 68.0369C88.3161 67.7983 88.9044 67.679 89.554 67.679C90.2102 67.679 90.7936 67.7966 91.304 68.032C91.8144 68.264 92.2188 68.5821 92.517 68.9865C92.8187 69.3909 92.9777 69.8499 92.9943 70.3636H91.8011ZM98.2431 78.1392C97.5603 78.1392 96.9571 78.0182 96.4334 77.7763C95.9131 77.531 95.507 77.1946 95.2154 76.767C94.9237 76.3362 94.7795 75.8456 94.7828 75.2955C94.7795 74.8646 94.8641 74.4669 95.0364 74.1023C95.2087 73.7344 95.4441 73.4278 95.7424 73.1825C96.044 72.9339 96.3804 72.7765 96.7516 72.7102V72.6506C96.2644 72.5246 95.8766 72.2512 95.5882 71.8303C95.2999 71.406 95.1574 70.9238 95.1607 70.3835C95.1574 69.8665 95.2883 69.4041 95.5534 68.9964C95.8186 68.5888 96.1832 68.2673 96.6472 68.032C97.1145 67.7966 97.6465 67.679 98.2431 67.679C98.833 67.679 99.36 67.7966 99.824 68.032C100.288 68.2673 100.653 68.5888 100.918 68.9964C101.186 69.4041 101.322 69.8665 101.325 70.3835C101.322 70.9238 101.175 71.406 100.883 71.8303C100.595 72.2512 100.212 72.5246 99.7346 72.6506V72.7102C100.102 72.7765 100.434 72.9339 100.729 73.1825C101.024 73.4278 101.259 73.7344 101.435 74.1023C101.61 74.4669 101.7 74.8646 101.703 75.2955C101.7 75.8456 101.551 76.3362 101.256 76.767C100.964 77.1946 100.558 77.531 100.038 77.7763C99.5208 78.0182 98.9225 78.1392 98.2431 78.1392ZM98.2431 77.0455C98.7038 77.0455 99.1015 76.9709 99.4363 76.8217C99.771 76.6726 100.03 76.4621 100.212 76.1903C100.394 75.9186 100.487 75.6004 100.49 75.2358C100.487 74.8513 100.387 74.5116 100.192 74.2166C99.9964 73.9216 99.7296 73.6896 99.3915 73.5206C99.0568 73.3516 98.6739 73.267 98.2431 73.267C97.8089 73.267 97.4211 73.3516 97.0797 73.5206C96.7417 73.6896 96.4748 73.9216 96.2793 74.2166C96.0871 74.5116 95.9926 74.8513 95.9959 75.2358C95.9926 75.6004 96.0804 75.9186 96.2594 76.1903C96.4417 76.4621 96.7019 76.6726 97.04 76.8217C97.378 76.9709 97.7791 77.0455 98.2431 77.0455ZM98.2431 72.2131C98.6077 72.2131 98.9308 72.1402 99.2125 71.9943C99.4976 71.8485 99.7213 71.6446 99.8837 71.3828C100.046 71.121 100.129 70.8144 100.132 70.4631C100.129 70.1184 100.048 69.8184 99.8887 69.5632C99.7296 69.3047 99.5092 69.1058 99.2275 68.9666C98.9457 68.8241 98.6176 68.7528 98.2431 68.7528C97.8619 68.7528 97.5288 68.8241 97.2438 68.9666C96.9587 69.1058 96.7383 69.3047 96.5826 69.5632C96.4268 69.8184 96.3506 70.1184 96.3539 70.4631C96.3506 70.8144 96.4284 71.121 96.5875 71.3828C96.7499 71.6446 96.9737 71.8485 97.2587 71.9943C97.5437 72.1402 97.8719 72.2131 98.2431 72.2131ZM106.93 78.1392C106.181 78.1392 105.543 77.9354 105.016 77.5277C104.489 77.1167 104.086 76.5218 103.808 75.7429C103.529 74.9607 103.39 74.0161 103.39 72.9091C103.39 71.8087 103.529 70.8691 103.808 70.0902C104.089 69.308 104.494 68.7114 105.021 68.3004C105.551 67.8861 106.187 67.679 106.93 67.679C107.672 67.679 108.307 67.8861 108.834 68.3004C109.364 68.7114 109.768 69.308 110.047 70.0902C110.329 70.8691 110.469 71.8087 110.469 72.9091C110.469 74.0161 110.33 74.9607 110.052 75.7429C109.773 76.5218 109.371 77.1167 108.844 77.5277C108.317 77.9354 107.679 78.1392 106.93 78.1392ZM106.93 77.0455C107.672 77.0455 108.249 76.6875 108.66 75.9716C109.071 75.2557 109.276 74.2348 109.276 72.9091C109.276 72.0275 109.182 71.2768 108.993 70.657C108.807 70.0372 108.539 69.5649 108.188 69.2401C107.839 68.9152 107.42 68.7528 106.93 68.7528C106.194 68.7528 105.619 69.1158 105.205 69.8416C104.79 70.5642 104.583 71.5866 104.583 72.9091C104.583 73.7907 104.676 74.5398 104.862 75.1562C105.047 75.7727 105.314 76.2417 105.662 76.5632C106.013 76.8847 106.436 77.0455 106.93 77.0455ZM112.878 78.0795C112.633 78.0795 112.422 77.9917 112.247 77.8161C112.071 77.6404 111.983 77.4299 111.983 77.1847C111.983 76.9394 112.071 76.7289 112.247 76.5533C112.422 76.3776 112.633 76.2898 112.878 76.2898C113.123 76.2898 113.334 76.3776 113.51 76.5533C113.685 76.7289 113.773 76.9394 113.773 77.1847C113.773 77.3471 113.732 77.4962 113.649 77.6321C113.569 77.768 113.462 77.8774 113.326 77.9602C113.193 78.0398 113.044 78.0795 112.878 78.0795ZM119.004 67.679C119.422 67.6823 119.84 67.7618 120.257 67.9176C120.675 68.0734 121.056 68.3319 121.401 68.6932C121.745 69.0511 122.022 69.54 122.231 70.1598C122.44 70.7796 122.544 71.5568 122.544 72.4915C122.544 73.3963 122.458 74.2 122.286 74.9027C122.117 75.602 121.871 76.192 121.55 76.6726C121.232 77.1532 120.844 77.5178 120.387 77.7663C119.932 78.0149 119.419 78.1392 118.845 78.1392C118.275 78.1392 117.767 78.0265 117.319 77.8011C116.875 77.5724 116.51 77.2559 116.225 76.8516C115.944 76.4439 115.763 75.9716 115.683 75.4347H116.896C117.006 75.902 117.223 76.2881 117.548 76.593C117.876 76.8946 118.308 77.0455 118.845 77.0455C119.631 77.0455 120.251 76.7024 120.705 76.0163C121.162 75.3303 121.391 74.3608 121.391 73.108H121.311C121.126 73.3864 120.905 73.6267 120.65 73.8288C120.395 74.031 120.111 74.1868 119.8 74.2962C119.488 74.4055 119.157 74.4602 118.806 74.4602C118.222 74.4602 117.687 74.3161 117.2 74.0277C116.716 73.736 116.328 73.3366 116.036 72.8295C115.748 72.3191 115.604 71.7358 115.604 71.0795C115.604 70.4564 115.743 69.8864 116.021 69.3693C116.303 68.849 116.698 68.4347 117.205 68.1264C117.715 67.8182 118.315 67.669 119.004 67.679ZM119.004 68.7727C118.587 68.7727 118.211 68.8771 117.876 69.0859C117.544 69.2914 117.281 69.5698 117.085 69.9212C116.893 70.2692 116.797 70.6553 116.797 71.0795C116.797 71.5038 116.89 71.8899 117.075 72.2379C117.264 72.5826 117.521 72.8577 117.846 73.0632C118.174 73.2654 118.547 73.3665 118.965 73.3665C119.28 73.3665 119.573 73.3052 119.845 73.1825C120.116 73.0566 120.353 72.8859 120.556 72.6705C120.761 72.4517 120.922 72.2048 121.038 71.9297C121.154 71.6513 121.212 71.3613 121.212 71.0597C121.212 70.6619 121.116 70.2891 120.923 69.9411C120.735 69.593 120.473 69.3113 120.138 69.0959C119.807 68.8804 119.429 68.7727 119.004 68.7727ZM127.741 67.679C128.158 67.6823 128.576 67.7618 128.994 67.9176C129.411 68.0734 129.792 68.3319 130.137 68.6932C130.482 69.0511 130.759 69.54 130.967 70.1598C131.176 70.7796 131.281 71.5568 131.281 72.4915C131.281 73.3963 131.194 74.2 131.022 74.9027C130.853 75.602 130.608 76.192 130.286 76.6726C129.968 77.1532 129.58 77.5178 129.123 77.7663C128.669 78.0149 128.155 78.1392 127.582 78.1392C127.012 78.1392 126.503 78.0265 126.055 77.8011C125.611 77.5724 125.247 77.2559 124.962 76.8516C124.68 76.4439 124.499 75.9716 124.42 75.4347H125.633C125.742 75.902 125.959 76.2881 126.284 76.593C126.612 76.8946 127.045 77.0455 127.582 77.0455C128.367 77.0455 128.987 76.7024 129.441 76.0163C129.898 75.3303 130.127 74.3608 130.127 73.108H130.048C129.862 73.3864 129.642 73.6267 129.386 73.8288C129.131 74.031 128.848 74.1868 128.536 74.2962C128.225 74.4055 127.893 74.4602 127.542 74.4602C126.959 74.4602 126.423 74.3161 125.936 74.0277C125.452 73.736 125.064 73.3366 124.773 72.8295C124.484 72.3191 124.34 71.7358 124.34 71.0795C124.34 70.4564 124.479 69.8864 124.758 69.3693C125.04 68.849 125.434 68.4347 125.941 68.1264C126.451 67.8182 127.051 67.669 127.741 67.679ZM127.741 68.7727C127.323 68.7727 126.947 68.8771 126.612 69.0859C126.281 69.2914 126.017 69.5698 125.822 69.9212C125.629 70.2692 125.533 70.6553 125.533 71.0795C125.533 71.5038 125.626 71.8899 125.812 72.2379C126.001 72.5826 126.258 72.8577 126.582 73.0632C126.911 73.2654 127.283 73.3665 127.701 73.3665C128.016 73.3665 128.309 73.3052 128.581 73.1825C128.853 73.0566 129.09 72.8859 129.292 72.6705C129.497 72.4517 129.658 72.2048 129.774 71.9297C129.89 71.6513 129.948 71.3613 129.948 71.0597C129.948 70.6619 129.852 70.2891 129.66 69.9411C129.471 69.593 129.209 69.3113 128.874 69.0959C128.543 68.8804 128.165 68.7727 127.741 68.7727Z" fill="#C4C4C4"/>
<path d="M93.1152 45.6603V38.8853H96.005V39.3758H93.8745V41.9209H95.6112V42.4115H93.8745V45.226H96.024V45.7005L93.1152 45.6603Z" fill="black"/>
<path d="M96.7832 43.1754V42.6929H98.8758V43.1754H96.7832Z" fill="black"/>
<path d="M100.988 45.6603L99.6353 38.8853H100.276L101.334 44.3897L102.539 38.9858H103.161L104.395 44.3978L105.372 38.8853H106.003L104.713 45.6603H104.129L102.852 40.0714L101.6 45.6603H100.988Z" fill="black"/>
<path d="M106.312 45.6603L108.001 38.8853H108.788L110.487 45.6603H109.766L109.372 43.8469H107.474L107.071 45.6603H106.312ZM107.555 43.3845H109.254L108.395 39.7296L107.555 43.3845Z" fill="black"/>
<path d="M111.455 45.6603V38.8853H112.204V45.1858H114.477V45.6603H111.455Z" fill="black"/>
<path d="M115.228 45.6603V38.8853H115.977V45.1858H118.25V45.6603H115.228Z" fill="black"/>
<path d="M118.99 45.6603V38.8853H121.885V39.3758H119.73V41.9209H121.467V42.4115H119.73V45.226H121.885V45.7005L118.99 45.6603Z" fill="black"/>
<path d="M123.916 45.6603V39.3758H122.407V38.8853H126.127V39.3758H124.665V45.6603H123.916Z" fill="black"/>
<path d="M102.036 107.95V100.713H104.883C105.323 100.699 105.759 100.785 106.145 100.962C106.477 101.124 106.735 101.374 106.881 101.674C107.053 102.034 107.135 102.42 107.123 102.808C107.154 103.251 107.042 103.693 106.8 104.086C106.598 104.37 106.286 104.586 105.918 104.698C105.515 104.814 105.091 104.871 104.665 104.866H103.906V107.95H102.036ZM103.934 103.769H104.546C104.73 103.778 104.913 103.742 105.073 103.664C105.197 103.586 105.281 103.471 105.31 103.343C105.352 103.164 105.371 102.982 105.367 102.8C105.37 102.637 105.354 102.474 105.32 102.313C105.296 102.182 105.215 102.063 105.092 101.98C104.929 101.885 104.733 101.841 104.537 101.855H103.915L103.934 103.769Z" fill="white"/>
<path d="M107.132 107.95L108.74 100.713H110.885L112.475 107.95H110.738L110.458 106.426H109.205L108.911 107.95H107.132ZM109.372 105.469H110.278L109.803 102.655L109.372 105.469Z" fill="white"/>
<path d="M113.989 107.95V105.015L112.371 100.745H114.145L114.957 103.029L115.683 100.745H117.386L115.797 105.015V107.95H113.989Z" fill="white"/>
<path d="M66.229 25.0899C57.8871 21.9054 49.3411 17.8846 44.335 11.1378C43.2341 9.6581 42.38 8.19856 41.8343 7.51904C41.2886 8.21866 40.4392 9.67821 39.3383 11.1378C34.318 17.8846 25.7767 21.9054 17.4395 25.0899C17.0694 25.2346 11.1095 26.9957 11.1143 27.048C11.119 27.1003 12.3717 53.1831 21.8573 64.6263C29.9572 74.3888 39.2814 77.8587 41.8343 78.6629C44.3872 77.8587 53.6971 74.3888 61.8113 64.6263C71.3016 53.1952 72.5543 27.052 72.5543 27.048C72.5543 27.044 66.5849 25.2346 66.229 25.0899Z" fill="#355B5E"/>
<path d="M63.605 27.0279C56.1599 24.1893 48.5345 20.5947 44.0645 14.5635C43.0823 13.2407 42.3183 11.9379 41.8343 11.3147C41.3598 11.9379 40.5864 13.2407 39.6041 14.5635C35.1389 20.5866 27.5088 24.1893 20.0826 27.0279C19.7505 27.1526 14.4312 28.7247 14.4312 28.773C14.4312 28.8212 15.5557 52.0935 24.0211 62.3103C31.2337 71.0194 39.5377 74.1154 41.8343 74.8351C44.112 74.1154 52.435 71.0194 59.6618 62.3103C68.1271 52.1096 69.2517 28.777 69.2517 28.773C69.2517 28.7689 63.9324 27.1526 63.605 27.0279Z" fill="white"/>
<path d="M42.0335 61.4096C52.6236 61.4096 61.2086 54.1351 61.2086 45.1616C61.2086 36.1881 52.6236 28.9136 42.0335 28.9136C31.4434 28.9136 22.8584 36.1881 22.8584 45.1616C22.8584 54.1351 31.4434 61.4096 42.0335 61.4096Z" fill="#263238" stroke="#263238" stroke-linecap="round" stroke-linejoin="round"/>
<path d="M38.4747 52.2747H38.2991C37.9812 52.2523 37.6737 52.1681 37.4005 52.0287C37.1272 51.8892 36.8956 51.6982 36.7237 51.4705L30.9964 43.7546C30.8396 43.5601 30.7308 43.3408 30.6763 43.1098C30.6219 42.8788 30.6229 42.6409 30.6793 42.4103C30.7358 42.1796 30.8465 41.961 31.0049 41.7674C31.1633 41.5739 31.3661 41.4093 31.6011 41.2836C31.8362 41.158 32.0988 41.0737 32.3732 41.0359C32.6476 40.9981 32.9281 41.0076 33.1981 41.0637C33.468 41.1198 33.7219 41.2215 33.9445 41.3626C34.167 41.5037 34.3538 41.6813 34.4935 41.8849L38.7642 47.6266L50.5748 36.4569C50.7516 36.2732 50.9704 36.1217 51.2182 36.0117C51.466 35.9017 51.7376 35.8354 52.0164 35.8169C52.2953 35.7984 52.5757 35.8279 52.8407 35.9038C53.1058 35.9797 53.3498 36.1003 53.5583 36.2584C53.7667 36.4165 53.9351 36.6088 54.0533 36.8236C54.1716 37.0385 54.2372 37.2714 54.2461 37.5083C54.2551 37.7452 54.2073 37.9812 54.1056 38.202C54.0039 38.4228 53.8504 38.6238 53.6544 38.793L40.0121 51.6916C39.8188 51.8751 39.5819 52.0219 39.317 52.1224C39.052 52.2229 38.765 52.2748 38.4747 52.2747Z" fill="white" stroke="#263238" stroke-miterlimit="10"/>
<path opacity="0.18" d="M47.9648 46.8345C37.1418 49.8683 27.7052 55.6872 20.9697 63.4806C21.2592 63.8826 21.5534 64.2566 21.8571 64.6225C29.957 74.3849 39.2812 77.8549 41.8341 78.659C44.387 77.8549 53.697 74.3849 61.8111 64.6225C67.2016 58.1289 69.9348 46.8828 71.3014 38.3828C65.9109 40.9762 58.3567 43.9476 47.9648 46.8345Z" fill="black"/>
<path d="M66.229 25.0899C57.8871 21.9054 49.3411 17.8846 44.335 11.1378C43.2341 9.6581 42.38 8.19856 41.8343 7.51904C41.2886 8.21866 40.4392 9.67821 39.3383 11.1378C34.318 17.8846 25.7767 21.9054 17.4395 25.0899C17.0694 25.2346 11.1095 26.9957 11.1143 27.048C11.119 27.1003 12.3717 53.1831 21.8573 64.6263C29.9572 74.3888 39.2814 77.8587 41.8343 78.6629C44.3872 77.8587 53.6971 74.3888 61.8113 64.6263C71.3016 53.1952 72.5543 27.052 72.5543 27.048C72.5543 27.044 66.5849 25.2346 66.229 25.0899Z" stroke="#263238" stroke-miterlimit="10"/>
<path d="M50.0077 185.875C59.2139 178.074 59.2139 165.427 50.0077 157.626C40.8015 149.825 25.8754 149.825 16.6692 157.626C7.46307 165.427 7.46308 178.074 16.6692 185.875C25.8754 193.676 40.8015 193.676 50.0077 185.875Z" fill="white" stroke="#263238" stroke-miterlimit="10"/>
<path d="M37.8483 188.083C48.4942 185.973 55.1049 176.949 52.6138 167.928C50.1228 158.907 39.4732 153.305 28.8273 155.416C18.1814 157.527 11.5707 166.551 14.0618 175.572C16.5529 184.593 27.2025 190.194 37.8483 188.083Z" fill="white" stroke="#263238" stroke-miterlimit="10"/>
<path d="M37.4073 187.015L36.7383 184.345C34.391 184.691 32.4929 184.374 31.0441 183.392C29.5952 182.411 28.5307 180.752 27.8506 178.415L32.4534 176.867C32.676 177.669 32.9939 178.451 33.4024 179.199C33.6639 179.712 34.0875 180.155 34.6267 180.477C34.8654 180.602 35.1313 180.684 35.4086 180.72C35.6859 180.755 35.9687 180.742 36.24 180.682C36.5257 180.659 36.798 180.568 37.0267 180.422C37.2554 180.275 37.4315 180.077 37.5354 179.85C37.6979 179.399 37.7176 178.919 37.5924 178.459C37.4077 177.583 36.9109 176.776 36.1688 176.147C35.3611 175.513 34.458 174.972 33.4831 174.539L30.0761 172.958C29.3237 172.581 28.6024 172.16 27.917 171.7C27.25 171.247 26.676 170.703 26.2183 170.092C25.6972 169.366 25.334 168.566 25.1459 167.731C24.7062 165.941 24.964 164.429 25.9193 163.196C26.9824 161.914 28.5563 161 30.3513 160.623L29.7107 158.065L31.3383 157.772L31.9789 160.329C33.0377 160.155 34.1312 160.211 35.1581 160.49C35.993 160.737 36.7395 161.16 37.3267 161.72C37.898 162.286 38.3666 162.92 38.717 163.602C39.0706 164.275 39.3641 164.97 39.5948 165.681L34.8971 167.156C34.7263 166.528 34.5011 165.911 34.2233 165.311C34.0282 164.861 33.7017 164.46 33.2743 164.145C33.0659 164.016 32.8238 163.931 32.5685 163.898C32.3132 163.865 32.0524 163.885 31.8081 163.956C31.5247 164.005 31.2598 164.112 31.0364 164.267C30.8131 164.423 30.6381 164.622 30.5269 164.849C30.3014 165.303 30.2484 165.806 30.375 166.288C30.5235 167.055 30.9752 167.757 31.6562 168.278C32.3114 168.739 33.0079 169.156 33.7393 169.525L37.0609 171.085C37.9519 171.525 38.8008 172.024 39.5996 172.577C40.4032 173.138 41.105 173.796 41.6827 174.531C42.3068 175.351 42.7401 176.266 42.9591 177.225C43.2146 178.181 43.2032 179.175 42.9259 180.128C42.661 181.038 42.1119 181.871 41.3363 182.54C40.4985 183.247 39.4637 183.763 38.3279 184.04L39.0064 186.742L37.4073 187.015Z" fill="#263238"/>
<path d="M185.194 180.163C190.69 170.163 185.578 158.28 173.775 153.623C161.973 148.966 147.95 153.298 142.454 163.299C136.957 173.299 142.07 185.182 153.872 189.839C165.675 194.496 179.698 190.164 185.194 180.163Z" fill="white" stroke="#263238" stroke-miterlimit="10"/>
<path d="M168.537 188.034C179.158 185.835 185.664 176.757 183.069 167.757C180.474 158.758 169.76 153.244 159.139 155.443C148.518 157.642 142.012 166.72 144.607 175.72C147.202 184.72 157.916 190.233 168.537 188.034Z" fill="white" stroke="#263238" stroke-miterlimit="10"/>
<path d="M167.898 187.015L167.224 184.345C164.88 184.691 162.982 184.373 161.53 183.392C160.078 182.411 159.012 180.752 158.332 178.415L162.94 176.867C163.16 177.67 163.478 178.451 163.889 179.199C164.149 179.713 164.573 180.156 165.113 180.477C165.351 180.602 165.616 180.685 165.892 180.72C166.169 180.755 166.451 180.742 166.722 180.682C167.008 180.66 167.281 180.57 167.51 180.423C167.739 180.276 167.914 180.078 168.017 179.85C168.183 179.399 168.205 178.919 168.079 178.459C167.892 177.584 167.395 176.777 166.655 176.147C165.846 175.514 164.944 174.973 163.969 174.539L160.558 172.958C159.807 172.581 159.087 172.16 158.403 171.7C157.735 171.248 157.161 170.704 156.705 170.092C156.183 169.366 155.82 168.566 155.632 167.731C155.18 165.933 155.431 164.422 156.387 163.2C157.449 161.913 159.025 160.995 160.823 160.615L160.183 158.057L161.81 157.764L162.451 160.321C163.508 160.147 164.6 160.203 165.625 160.482C166.461 160.728 167.208 161.151 167.794 161.712C168.368 162.276 168.839 162.911 169.189 163.594C169.541 164.267 169.833 164.962 170.062 165.673L165.369 167.148C165.196 166.521 164.971 165.904 164.695 165.303C164.5 164.853 164.174 164.452 163.746 164.137C163.539 164.008 163.297 163.923 163.043 163.89C162.788 163.857 162.528 163.877 162.285 163.948C162.001 163.997 161.737 164.104 161.513 164.259C161.29 164.415 161.115 164.614 161.004 164.84C160.776 165.295 160.723 165.799 160.852 166.28C160.997 167.047 161.447 167.75 162.128 168.27C162.784 168.73 163.481 169.147 164.211 169.517L167.533 171.077C168.425 171.516 169.274 172.015 170.072 172.568C170.876 173.129 171.578 173.787 172.155 174.523C172.78 175.343 173.215 176.258 173.436 177.216C173.689 178.173 173.677 179.167 173.403 180.119C173.135 181.03 172.585 181.863 171.808 182.532C170.972 183.238 169.939 183.754 168.805 184.032L169.478 186.734L167.898 187.015Z" fill="#263238"/>
<path d="M223.402 143.257V142.159" stroke="#263238" stroke-miterlimit="10"/>
<path d="M224.531 140.893H184.9V143.345H224.531V140.893Z" fill="white" stroke="#263238" stroke-miterlimit="10"/>
<path d="M186.651 143.562V142.039" stroke="#263238" stroke-miterlimit="10"/>
<path d="M187.875 141.001V142.525" stroke="#263238" stroke-miterlimit="10"/>
<path d="M221.965 141.126V142.586" stroke="#263238" stroke-miterlimit="10"/>
<path d="M220.095 141.126V142.525" stroke="#263238" stroke-miterlimit="10"/>
<path d="M215.492 141.062V142.831" stroke="#263238" stroke-miterlimit="10"/>
<path d="M190.822 141.247V142.039" stroke="#263238" stroke-miterlimit="10"/>
<path d="M191.543 143.072V141.673" stroke="#263238" stroke-miterlimit="10"/>
<path d="M196.649 141.062V142.831" stroke="#263238" stroke-miterlimit="10"/>
<path d="M205.636 141.247V142.465" stroke="#263238" stroke-miterlimit="10"/>
<path d="M226.269 145.669V144.572" stroke="#263238" stroke-miterlimit="10"/>
<path d="M227.398 143.305H187.766V145.758H227.398V143.305Z" fill="white" stroke="#263238" stroke-miterlimit="10"/>
<path d="M189.518 145.971V144.447" stroke="#263238" stroke-miterlimit="10"/>
<path d="M190.741 143.414V144.937" stroke="#263238" stroke-miterlimit="10"/>
<path d="M224.826 143.534V144.998" stroke="#263238" stroke-miterlimit="10"/>
<path d="M222.956 143.534V144.938" stroke="#263238" stroke-miterlimit="10"/>
<path d="M218.353 143.474V145.243" stroke="#263238" stroke-miterlimit="10"/>
<path d="M193.688 143.655V144.447" stroke="#263238" stroke-miterlimit="10"/>
<path d="M194.409 145.484V144.085" stroke="#263238" stroke-miterlimit="10"/>
<path d="M199.515 143.474V145.243" stroke="#263238" stroke-miterlimit="10"/>
<path d="M208.502 143.655V144.877" stroke="#263238" stroke-miterlimit="10"/>
<path d="M225.262 148.078V146.98" stroke="#263238" stroke-miterlimit="10"/>
<path d="M226.392 145.714H186.76V148.166H226.392V145.714Z" fill="white" stroke="#263238" stroke-miterlimit="10"/>
<path d="M188.511 148.384V146.86" stroke="#263238" stroke-miterlimit="10"/>
<path d="M189.736 145.826V147.346" stroke="#263238" stroke-miterlimit="10"/>
<path d="M223.825 145.947V147.41" stroke="#263238" stroke-miterlimit="10"/>
<path d="M221.95 145.947V147.346" stroke="#263238" stroke-miterlimit="10"/>
<path d="M217.352 145.886V147.652" stroke="#263238" stroke-miterlimit="10"/>
<path d="M192.683 146.067V146.859" stroke="#263238" stroke-miterlimit="10"/>
<path d="M193.403 147.897V146.494" stroke="#263238" stroke-miterlimit="10"/>
<path d="M198.509 145.886V147.652" stroke="#263238" stroke-miterlimit="10"/>
<path d="M207.496 146.067V147.286" stroke="#263238" stroke-miterlimit="10"/>
<path d="M226.269 150.49V149.393" stroke="#263238" stroke-miterlimit="10"/>
<path d="M227.402 148.126H187.771V150.579H227.402V148.126Z" fill="white" stroke="#263238" stroke-miterlimit="10"/>
<path d="M189.522 150.796V149.272" stroke="#263238" stroke-miterlimit="10"/>
<path d="M190.747 148.235V149.759" stroke="#263238" stroke-miterlimit="10"/>
<path d="M224.831 148.359V149.819" stroke="#263238" stroke-miterlimit="10"/>
<path d="M222.961 148.359V149.759" stroke="#263238" stroke-miterlimit="10"/>
<path d="M218.358 148.295V150.064" stroke="#263238" stroke-miterlimit="10"/>
<path d="M193.693 148.48V149.272" stroke="#263238" stroke-miterlimit="10"/>
<path d="M194.415 150.305V148.906" stroke="#263238" stroke-miterlimit="10"/>
<path d="M199.52 148.295V150.064" stroke="#263238" stroke-miterlimit="10"/>
<path d="M208.507 148.48V149.698" stroke="#263238" stroke-miterlimit="10"/>
<path d="M223.402 152.903V151.805" stroke="#263238" stroke-miterlimit="10"/>
<path d="M224.531 150.539H184.9V152.991H224.531V150.539Z" fill="white" stroke="#263238" stroke-miterlimit="10"/>
<path d="M186.651 153.205V151.681" stroke="#263238" stroke-miterlimit="10"/>
<path d="M187.875 150.647V152.171" stroke="#263238" stroke-miterlimit="10"/>
<path d="M221.965 150.768V152.231" stroke="#263238" stroke-miterlimit="10"/>
<path d="M220.095 150.768V152.171" stroke="#263238" stroke-miterlimit="10"/>
<path d="M215.492 150.708V152.477" stroke="#263238" stroke-miterlimit="10"/>
<path d="M190.822 150.888V151.681" stroke="#263238" stroke-miterlimit="10"/>
<path d="M191.543 152.718V151.319" stroke="#263238" stroke-miterlimit="10"/>
<path d="M196.649 150.708V152.477" stroke="#263238" stroke-miterlimit="10"/>
<path d="M205.636 150.888V152.111" stroke="#263238" stroke-miterlimit="10"/>
<path d="M223.402 155.311V154.213" stroke="#263238" stroke-miterlimit="10"/>
<path d="M224.531 152.947H184.9V155.4H224.531V152.947Z" fill="white" stroke="#263238" stroke-miterlimit="10"/>
<path d="M186.651 155.617V154.093" stroke="#263238" stroke-miterlimit="10"/>
<path d="M187.875 153.056V154.58" stroke="#263238" stroke-miterlimit="10"/>
<path d="M221.965 153.18V154.644" stroke="#263238" stroke-miterlimit="10"/>
<path d="M220.095 153.18V154.579" stroke="#263238" stroke-miterlimit="10"/>
<path d="M215.492 153.12V154.885" stroke="#263238" stroke-miterlimit="10"/>
<path d="M190.822 153.301V154.093" stroke="#263238" stroke-miterlimit="10"/>
<path d="M191.543 155.13V153.727" stroke="#263238" stroke-miterlimit="10"/>
<path d="M196.649 153.12V154.885" stroke="#263238" stroke-miterlimit="10"/>
<path d="M205.636 153.301V154.519" stroke="#263238" stroke-miterlimit="10"/>
<path d="M223.402 157.724V156.626" stroke="#263238" stroke-miterlimit="10"/>
<path d="M224.531 155.359H184.9V157.812H224.531V155.359Z" fill="white" stroke="#263238" stroke-miterlimit="10"/>
<path d="M186.651 158.029V156.505" stroke="#263238" stroke-miterlimit="10"/>
<path d="M187.875 155.468V156.992" stroke="#263238" stroke-miterlimit="10"/>
<path d="M221.965 155.589V157.052" stroke="#263238" stroke-miterlimit="10"/>
<path d="M220.095 155.589V156.992" stroke="#263238" stroke-miterlimit="10"/>
<path d="M215.492 155.528V157.297" stroke="#263238" stroke-miterlimit="10"/>
<path d="M190.822 155.713V156.505" stroke="#263238" stroke-miterlimit="10"/>
<path d="M191.543 157.539V156.14" stroke="#263238" stroke-miterlimit="10"/>
<path d="M196.649 155.528V157.297" stroke="#263238" stroke-miterlimit="10"/>
<path d="M205.636 155.713V156.932" stroke="#263238" stroke-miterlimit="10"/>
<path d="M226.5 160.136V159.039" stroke="#263238" stroke-miterlimit="10"/>
<path d="M227.63 157.772H187.999V160.225H227.63V157.772Z" fill="white" stroke="#263238" stroke-miterlimit="10"/>
<path d="M189.754 160.438V158.914" stroke="#263238" stroke-miterlimit="10"/>
<path d="M190.974 157.88V159.404" stroke="#263238" stroke-miterlimit="10"/>
<path d="M225.063 158.001V159.465" stroke="#263238" stroke-miterlimit="10"/>
<path d="M223.193 158.001V159.404" stroke="#263238" stroke-miterlimit="10"/>
<path d="M218.59 157.941V159.706" stroke="#263238" stroke-miterlimit="10"/>
<path d="M193.925 158.122V158.914" stroke="#263238" stroke-miterlimit="10"/>
<path d="M194.642 159.951V158.552" stroke="#263238" stroke-miterlimit="10"/>
<path d="M199.748 157.941V159.706" stroke="#263238" stroke-miterlimit="10"/>
<path d="M208.74 158.122V159.344" stroke="#263238" stroke-miterlimit="10"/>
<path d="M227.583 162.545V161.447" stroke="#263238" stroke-miterlimit="10"/>
<path d="M228.717 160.18H189.085V162.633H228.717V160.18Z" fill="white" stroke="#263238" stroke-miterlimit="10"/>
<path d="M190.836 162.85V161.326" stroke="#263238" stroke-miterlimit="10"/>
<path d="M192.061 160.289V161.813" stroke="#263238" stroke-miterlimit="10"/>
<path d="M226.145 160.414V161.877" stroke="#263238" stroke-miterlimit="10"/>
<path d="M224.275 160.414V161.813" stroke="#263238" stroke-miterlimit="10"/>
<path d="M219.673 160.353V162.118" stroke="#263238" stroke-miterlimit="10"/>
<path d="M195.007 160.534V161.326" stroke="#263238" stroke-miterlimit="10"/>
<path d="M195.729 162.364V160.96" stroke="#263238" stroke-miterlimit="10"/>
<path d="M200.834 160.353V162.118" stroke="#263238" stroke-miterlimit="10"/>
<path d="M209.821 160.534V161.752" stroke="#263238" stroke-miterlimit="10"/>
<path d="M226.273 164.957V163.859" stroke="#263238" stroke-miterlimit="10"/>
<path d="M227.402 162.593H187.771V165.045H227.402V162.593Z" fill="white" stroke="#263238" stroke-miterlimit="10"/>
<path d="M189.526 165.263V163.739" stroke="#263238" stroke-miterlimit="10"/>
<path d="M190.747 162.701V164.225" stroke="#263238" stroke-miterlimit="10"/>
<path d="M224.835 162.822V164.286" stroke="#263238" stroke-miterlimit="10"/>
<path d="M222.966 162.822V164.225" stroke="#263238" stroke-miterlimit="10"/>
<path d="M218.363 162.762V164.531" stroke="#263238" stroke-miterlimit="10"/>
<path d="M193.698 162.947V163.739" stroke="#263238" stroke-miterlimit="10"/>
<path d="M194.415 164.772V163.373" stroke="#263238" stroke-miterlimit="10"/>
<path d="M199.52 162.762V164.531" stroke="#263238" stroke-miterlimit="10"/>
<path d="M208.512 162.947V164.165" stroke="#263238" stroke-miterlimit="10"/>
<path d="M223.402 167.37V166.272" stroke="#263238" stroke-miterlimit="10"/>
<path d="M224.531 165.005H184.9V167.458H224.531V165.005Z" fill="white" stroke="#263238" stroke-miterlimit="10"/>
<path d="M186.651 167.671V166.147" stroke="#263238" stroke-miterlimit="10"/>
<path d="M187.875 165.114V166.638" stroke="#263238" stroke-miterlimit="10"/>
<path d="M221.965 165.234V166.698" stroke="#263238" stroke-miterlimit="10"/>
<path d="M220.095 165.234V166.638" stroke="#263238" stroke-miterlimit="10"/>
<path d="M215.492 165.174V166.939" stroke="#263238" stroke-miterlimit="10"/>
<path d="M190.822 165.355V166.147" stroke="#263238" stroke-miterlimit="10"/>
<path d="M191.543 167.184V165.785" stroke="#263238" stroke-miterlimit="10"/>
<path d="M196.649 165.174V166.939" stroke="#263238" stroke-miterlimit="10"/>
<path d="M205.636 165.355V166.578" stroke="#263238" stroke-miterlimit="10"/>
<path d="M222.443 169.778V168.68" stroke="#263238" stroke-miterlimit="10"/>
<path d="M223.573 167.414H183.941V169.866H223.573V167.414Z" fill="white" stroke="#263238" stroke-miterlimit="10"/>
<path d="M185.697 170.083V168.56" stroke="#263238" stroke-miterlimit="10"/>
<path d="M186.917 167.522V169.046" stroke="#263238" stroke-miterlimit="10"/>
<path d="M221.006 167.647V169.107" stroke="#263238" stroke-miterlimit="10"/>
<path d="M219.136 167.647V169.046" stroke="#263238" stroke-miterlimit="10"/>
<path d="M214.533 167.587V169.352" stroke="#263238" stroke-miterlimit="10"/>
<path d="M189.868 167.768V168.56" stroke="#263238" stroke-miterlimit="10"/>
<path d="M190.585 169.597V168.194" stroke="#263238" stroke-miterlimit="10"/>
<path d="M195.691 167.587V169.352" stroke="#263238" stroke-miterlimit="10"/>
<path d="M204.683 167.768V168.986" stroke="#263238" stroke-miterlimit="10"/>
<path d="M222.254 172.19V171.093" stroke="#263238" stroke-miterlimit="10"/>
<path d="M223.383 169.826H183.751V172.279H223.383V169.826Z" fill="white" stroke="#263238" stroke-miterlimit="10"/>
<path d="M185.503 172.496V170.972" stroke="#263238" stroke-miterlimit="10"/>
<path d="M186.727 169.935V171.459" stroke="#263238" stroke-miterlimit="10"/>
<path d="M220.816 170.055V171.519" stroke="#263238" stroke-miterlimit="10"/>
<path d="M218.946 170.055V171.459" stroke="#263238" stroke-miterlimit="10"/>
<path d="M214.344 169.995V171.764" stroke="#263238" stroke-miterlimit="10"/>
<path d="M189.674 170.18V170.972" stroke="#263238" stroke-miterlimit="10"/>
<path d="M190.395 172.005V170.606" stroke="#263238" stroke-miterlimit="10"/>
<path d="M195.5 169.995V171.764" stroke="#263238" stroke-miterlimit="10"/>
<path d="M204.488 170.18V171.398" stroke="#263238" stroke-miterlimit="10"/>
<path d="M222.349 174.603V173.505" stroke="#263238" stroke-miterlimit="10"/>
<path d="M223.478 172.239H183.847V174.691H223.478V172.239Z" fill="white" stroke="#263238" stroke-miterlimit="10"/>
<path d="M185.603 174.904V173.381" stroke="#263238" stroke-miterlimit="10"/>
<path d="M186.822 172.347V173.871" stroke="#263238" stroke-miterlimit="10"/>
<path d="M220.911 172.468V173.931" stroke="#263238" stroke-miterlimit="10"/>
<path d="M219.042 172.468V173.871" stroke="#263238" stroke-miterlimit="10"/>
<path d="M214.438 172.408V174.173" stroke="#263238" stroke-miterlimit="10"/>
<path d="M189.773 172.589V173.381" stroke="#263238" stroke-miterlimit="10"/>
<path d="M190.49 174.418V173.015" stroke="#263238" stroke-miterlimit="10"/>
<path d="M195.595 172.408V174.173" stroke="#263238" stroke-miterlimit="10"/>
<path d="M204.588 172.589V173.811" stroke="#263238" stroke-miterlimit="10"/>
<path d="M221.774 177.011V175.914" stroke="#263238" stroke-miterlimit="10"/>
<path d="M222.904 174.647H183.273V177.1H222.904V174.647Z" fill="white" stroke="#263238" stroke-miterlimit="10"/>
<path d="M185.028 177.317V175.793" stroke="#263238" stroke-miterlimit="10"/>
<path d="M186.248 174.756V176.28" stroke="#263238" stroke-miterlimit="10"/>
<path d="M220.337 174.88V176.34" stroke="#263238" stroke-miterlimit="10"/>
<path d="M218.468 174.88V176.28" stroke="#263238" stroke-miterlimit="10"/>
<path d="M213.864 174.82V176.585" stroke="#263238" stroke-miterlimit="10"/>
<path d="M189.199 175.001V175.793" stroke="#263238" stroke-miterlimit="10"/>
<path d="M189.916 176.83V175.427" stroke="#263238" stroke-miterlimit="10"/>
<path d="M195.021 174.82V176.585" stroke="#263238" stroke-miterlimit="10"/>
<path d="M204.014 175.001V176.219" stroke="#263238" stroke-miterlimit="10"/>
<path d="M221.87 179.424V178.326" stroke="#263238" stroke-miterlimit="10"/>
<path d="M222.999 177.06H183.368V179.512H222.999V177.06Z" fill="white" stroke="#263238" stroke-miterlimit="10"/>
<path d="M185.123 179.729V178.206" stroke="#263238" stroke-miterlimit="10"/>
<path d="M186.342 177.168V178.692" stroke="#263238" stroke-miterlimit="10"/>
<path d="M220.432 177.289V178.752" stroke="#263238" stroke-miterlimit="10"/>
<path d="M218.562 177.289V178.692" stroke="#263238" stroke-miterlimit="10"/>
<path d="M213.959 177.229V178.998" stroke="#263238" stroke-miterlimit="10"/>
<path d="M189.294 177.414V178.206" stroke="#263238" stroke-miterlimit="10"/>
<path d="M190.01 179.239V177.84" stroke="#263238" stroke-miterlimit="10"/>
<path d="M195.117 177.229V178.998" stroke="#263238" stroke-miterlimit="10"/>
<path d="M204.108 177.414V178.632" stroke="#263238" stroke-miterlimit="10"/>
<path d="M222.254 181.832V180.739" stroke="#263238" stroke-miterlimit="10"/>
<path d="M223.383 179.472H183.751V181.925H223.383V179.472Z" fill="white" stroke="#263238" stroke-miterlimit="10"/>
<path d="M185.503 182.138V180.614" stroke="#263238" stroke-miterlimit="10"/>
<path d="M186.727 179.581V181.104" stroke="#263238" stroke-miterlimit="10"/>
<path d="M220.816 179.701V181.165" stroke="#263238" stroke-miterlimit="10"/>
<path d="M218.946 179.701V181.104" stroke="#263238" stroke-miterlimit="10"/>
<path d="M214.344 179.641V181.406" stroke="#263238" stroke-miterlimit="10"/>
<path d="M189.674 179.822V180.614" stroke="#263238" stroke-miterlimit="10"/>
<path d="M190.395 181.651V180.248" stroke="#263238" stroke-miterlimit="10"/>
<path d="M195.5 179.641V181.406" stroke="#263238" stroke-miterlimit="10"/>
<path d="M204.488 179.822V181.04" stroke="#263238" stroke-miterlimit="10"/>
<path d="M222.349 184.245V183.147" stroke="#263238" stroke-miterlimit="10"/>
<path d="M223.478 181.881H183.847V184.333H223.478V181.881Z" fill="white" stroke="#263238" stroke-miterlimit="10"/>
<path d="M185.603 184.55V183.026" stroke="#263238" stroke-miterlimit="10"/>
<path d="M186.822 181.989V183.513" stroke="#263238" stroke-miterlimit="10"/>
<path d="M220.911 182.114V183.573" stroke="#263238" stroke-miterlimit="10"/>
<path d="M219.042 182.114V183.513" stroke="#263238" stroke-miterlimit="10"/>
<path d="M214.438 182.054V183.819" stroke="#263238" stroke-miterlimit="10"/>
<path d="M189.773 182.234V183.026" stroke="#263238" stroke-miterlimit="10"/>
<path d="M190.49 184.064V182.661" stroke="#263238" stroke-miterlimit="10"/>
<path d="M195.595 182.054V183.819" stroke="#263238" stroke-miterlimit="10"/>
<path d="M204.588 182.234V183.453" stroke="#263238" stroke-miterlimit="10"/>
<path d="M223.402 186.657V185.56" stroke="#263238" stroke-miterlimit="10"/>
<path d="M224.531 184.293H184.9V186.746H224.531V184.293Z" fill="white" stroke="#263238" stroke-miterlimit="10"/>
<path d="M186.651 186.963V185.439" stroke="#263238" stroke-miterlimit="10"/>
<path d="M187.875 184.402V185.925" stroke="#263238" stroke-miterlimit="10"/>
<path d="M221.965 184.522V185.986" stroke="#263238" stroke-miterlimit="10"/>
<path d="M220.095 184.522V185.925" stroke="#263238" stroke-miterlimit="10"/>
<path d="M215.492 184.462V186.231" stroke="#263238" stroke-miterlimit="10"/>
<path d="M190.822 184.647V185.439" stroke="#263238" stroke-miterlimit="10"/>
<path d="M191.543 186.472V185.073" stroke="#263238" stroke-miterlimit="10"/>
<path d="M196.649 184.462V186.231" stroke="#263238" stroke-miterlimit="10"/>
<path d="M205.636 184.647V185.865" stroke="#263238" stroke-miterlimit="10"/>
<path d="M223.402 189.066V187.972" stroke="#263238" stroke-miterlimit="10"/>
<path d="M224.531 186.702H184.9V189.15H224.531V186.702Z" fill="white" stroke="#263238" stroke-miterlimit="10"/>
<path d="M186.651 189.371V187.847" stroke="#263238" stroke-miterlimit="10"/>
<path d="M187.875 186.814V188.338" stroke="#263238" stroke-miterlimit="10"/>
<path d="M221.965 186.935V188.398" stroke="#263238" stroke-miterlimit="10"/>
<path d="M220.095 186.935V188.338" stroke="#263238" stroke-miterlimit="10"/>
<path d="M215.492 186.875V188.64" stroke="#263238" stroke-miterlimit="10"/>
<path d="M190.822 187.055V187.848" stroke="#263238" stroke-miterlimit="10"/>
<path d="M191.543 188.885V187.481" stroke="#263238" stroke-miterlimit="10"/>
<path d="M196.649 186.875V188.64" stroke="#263238" stroke-miterlimit="10"/>
<path d="M205.636 187.055V188.274" stroke="#263238" stroke-miterlimit="10"/>
<path d="M223.402 191.478V190.381" stroke="#263238" stroke-miterlimit="10"/>
<path d="M224.531 189.114H184.9V191.563H224.531V189.114Z" fill="white" stroke="#263238" stroke-miterlimit="10"/>
<path d="M186.651 191.784V190.26" stroke="#263238" stroke-miterlimit="10"/>
<path d="M187.875 189.223V190.747" stroke="#263238" stroke-miterlimit="10"/>
<path d="M221.965 189.347V190.807" stroke="#263238" stroke-miterlimit="10"/>
<path d="M220.095 189.347V190.746" stroke="#263238" stroke-miterlimit="10"/>
<path d="M215.492 189.287V191.052" stroke="#263238" stroke-miterlimit="10"/>
<path d="M190.822 189.468V190.26" stroke="#263238" stroke-miterlimit="10"/>
<path d="M191.543 191.297V189.894" stroke="#263238" stroke-miterlimit="10"/>
<path d="M196.649 189.287V191.052" stroke="#263238" stroke-miterlimit="10"/>
<path d="M205.636 189.468V190.686" stroke="#263238" stroke-miterlimit="10"/>
<path d="M102.273 121.086H86.7134V155.191H102.273V121.086Z" fill="#263238" stroke="#263238" stroke-linecap="round" stroke-linejoin="round"/>
<path d="M138.616 126.478V126.076C138.616 124.752 137.995 123.481 136.89 122.545C135.785 121.608 134.286 121.082 132.723 121.082H86.6948V121.131C88.1131 121.286 89.416 121.874 90.36 122.784C91.3041 123.694 91.8246 124.864 91.8243 126.076V134.761H91.9287V185.624C91.9287 186.412 92.112 187.193 92.468 187.921C92.824 188.65 93.3459 189.311 94.0037 189.869C94.6616 190.426 95.4426 190.868 96.3021 191.17C97.1616 191.472 98.0829 191.627 99.0132 191.627H138.607V126.49L138.616 126.478Z" fill="#DBDBDB" stroke="#263238" stroke-linecap="round" stroke-linejoin="round"/>
<path d="M107.45 182.709V186.637C107.449 187.757 107.004 188.843 106.186 189.723C105.369 190.602 104.226 191.223 102.942 191.486V191.631H123.275V182.709H107.45Z" fill="#263238" stroke="#263238" stroke-linecap="round" stroke-linejoin="round"/>
<path d="M110.62 177.952V186.637C110.618 187.848 110.098 189.017 109.155 189.926C108.212 190.836 106.912 191.425 105.495 191.583V191.627H146.303C147.077 191.627 147.844 191.498 148.559 191.247C149.274 190.996 149.923 190.628 150.471 190.164C151.018 189.7 151.452 189.15 151.748 188.544C152.044 187.938 152.197 187.289 152.197 186.633V177.952H110.62Z" fill="#DBDBDB" stroke="#263238" stroke-linecap="round" stroke-linejoin="round"/>
<path d="M101.001 127.877H131.669" stroke="#263238" stroke-miterlimit="10"/>
<path d="M101.001 132.614H131.669" stroke="#263238" stroke-miterlimit="10"/>
<path d="M101.001 136.635H131.669" stroke="#263238" stroke-miterlimit="10"/>
<path d="M101.001 164.631H131.669" stroke="#263238" stroke-miterlimit="10"/>
<path d="M101.001 171.527H131.669" stroke="#263238" stroke-miterlimit="10"/>
<path d="M101.001 140.8H119.303" stroke="#263238" stroke-miterlimit="10"/>
<path d="M101.001 144.531H119.303" stroke="#263238" stroke-miterlimit="10"/>
<path d="M101.001 148.263H119.303" stroke="#263238" stroke-miterlimit="10"/>
<path d="M101.001 151.998H119.303" stroke="#263238" stroke-miterlimit="10"/>
<path d="M101.001 155.729H119.303" stroke="#263238" stroke-miterlimit="10"/>
<path d="M101.001 159.465H119.303" stroke="#263238" stroke-miterlimit="10"/>
<path d="M57.887 185.708C57.887 185.708 59.9938 188.165 60.9144 188.499C61.835 188.833 63.548 189.058 64.0747 190.063C64.3672 190.551 64.5476 191.082 64.6061 191.627H51.5617C51.5617 191.627 51.035 190.176 51.5617 189.283C51.8865 188.719 52.1088 188.118 52.2213 187.498L57.887 185.708Z" fill="white" stroke="#263238" stroke-linecap="round" stroke-linejoin="round"/>
<path d="M51.3389 190.509H64.2884C64.4617 190.866 64.5689 191.243 64.6063 191.627H51.5619C51.4402 191.262 51.3655 190.888 51.3389 190.509Z" fill="white" stroke="#263238" stroke-linecap="round" stroke-linejoin="round"/>
<path d="M43.9221 188.165L43.6611 191.735H37.3359C37.1881 191.066 37.2337 190.376 37.4687 189.725C37.8626 188.72 38.2612 187.827 38.2612 187.827L43.9221 188.165Z" fill="white" stroke="#263238" stroke-linecap="round" stroke-linejoin="round"/>
<path d="M43.6615 191.736H37.3362C37.2393 191.294 37.2249 190.842 37.2935 190.397H43.7611L43.6615 191.736Z" fill="white" stroke="#263238" stroke-linecap="round" stroke-linejoin="round"/>
<path d="M63.0214 133.684C63.0214 133.684 61.9679 145.292 61.707 149.421C61.446 153.55 57.8871 185.701 57.8871 185.701C57.8871 185.701 52.7481 188.382 52.0886 188.382C51.429 188.382 50.665 149.646 50.665 149.646L43.9222 188.165C43.197 188.362 42.4435 188.474 41.6825 188.499C40.6291 188.499 38.2612 187.832 38.2612 187.832L40.4867 141.395V133.684C40.4867 133.684 53.7731 135.248 57.3462 134.801C59.2759 134.584 61.1765 134.21 63.0214 133.684Z" fill="#263238" stroke="#263238" stroke-linecap="round" stroke-linejoin="round"/>
<path d="M46.9541 140.724L49.8486 142.622L50.6411 149.654" stroke="#808080" stroke-linecap="round" stroke-linejoin="round"/>
<path d="M45.7586 86.5276C45.7586 86.5276 51.1301 85.9566 52.7103 87.5127C54.2904 89.0687 54.6083 92.0843 55.7044 92.808C56.8006 93.5318 57.4127 92.6311 57.9014 93.572C58.3902 94.5129 57.593 95.6749 57.593 95.6749C57.593 95.6749 57.7259 100.206 57.1185 100.423C56.5111 100.641 53.7969 100.645 53.7969 100.645L54.2382 102.506L47.4432 102.747L46.85 100.801C46.85 100.801 41.6826 98.2602 40.2875 96.3343C38.8924 94.4083 39.2246 90.1423 40.6197 88.6505C42.0147 87.1588 45.7586 86.5276 45.7586 86.5276Z" fill="white" stroke="#263238" stroke-linecap="round" stroke-linejoin="round"/>
<path d="M57.593 95.6748C57.593 95.6748 54.4422 94.8345 54.2714 95.2325C54.1006 95.6306 54.6463 100.713 54.6463 100.713C54.6463 100.713 56.8717 100.93 57.1185 100.423C57.3652 99.9167 57.8397 99.2935 57.593 95.6748ZM56.9287 99.9409C56.7484 100.343 55.154 100.174 55.154 100.174C55.154 100.174 54.7507 96.0809 54.8835 95.7512C55.0164 95.4215 57.2561 96.1091 57.2561 96.1091C57.4506 99.0322 57.0948 99.5348 56.9287 99.9409Z" fill="#263238"/>
<path d="M54.0818 92.5869C54.2479 92.9286 54.5136 93.1578 54.6749 93.1015C54.8362 93.0452 54.8315 92.7236 54.6749 92.3818C54.5183 92.04 54.2431 91.8108 54.0818 91.8671C53.9204 91.9234 53.9157 92.2451 54.0818 92.5869Z" fill="#263238"/>
<path d="M57.052 96.4067C56.7691 96.5283 56.4423 96.5544 56.1376 96.4798C55.8329 96.4051 55.5729 96.2353 55.4102 96.0046" stroke="#263238" stroke-linecap="round" stroke-linejoin="round"/>
<path d="M54.0246 91.0029C54.0246 91.0029 53.3365 90.6853 53.2559 91.6543" stroke="#263238" stroke-linecap="round" stroke-linejoin="round"/>
<path d="M40.6197 88.6505C42.0148 87.1629 45.7587 86.5276 45.7587 86.5276C45.7587 86.5276 51.1302 85.9566 52.7103 87.5127C52.7103 87.5127 49.7399 86.8774 50.1242 87.9509C50.5086 89.0245 53.5882 90.665 52.53 91.3002C51.4718 91.9355 50.2808 91.453 50.7743 92.3939C51.2678 93.3348 51.8847 94.2555 51.3674 94.34C50.8502 94.4244 49.403 93.4232 48.7861 93.6403C48.1692 93.8575 47.4669 95.4577 48.0601 96.2699C48.4589 96.7675 49.0723 97.1126 49.7683 97.2309C49.7683 97.2309 48.7102 99.575 47.7801 100.186C47.3771 100.456 46.869 100.588 46.3566 100.556C45.0422 99.8766 41.4074 97.9024 40.2733 96.3343C38.8925 94.4083 39.2246 90.1423 40.6197 88.6505Z" fill="#263238" stroke="#263238" stroke-linecap="round" stroke-linejoin="round"/>
<path d="M40.2828 105.791C40.2828 105.791 36.4534 107.914 35.4237 109.535C34.394 111.155 31.8886 126.374 31.5944 127.998C31.3002 129.622 35.7939 141.037 35.7939 141.037C35.7939 141.037 35.4237 143.651 35.7939 145.058C36.164 146.466 37.2601 147.286 37.8153 147.366C38.3705 147.447 38.8402 146.027 38.8402 146.027C39.2104 146.341 39.6754 145.947 39.6754 145.557C39.6754 145.167 39.9553 142.34 39.8604 141.938C39.7655 141.536 39.3527 140.237 39.3527 140.237L40.3017 130.234L40.2828 105.791Z" fill="white" stroke="#263238" stroke-linecap="round" stroke-linejoin="round"/>
<path d="M31.9453 126.583C33.496 127.117 35.1455 127.417 36.8186 127.467C39.2576 127.467 39.9504 127.174 39.9504 127.174L40.069 124.52C40.069 124.52 34.4982 124.52 33.9003 124.323C33.3024 124.126 32.2727 123.833 32.2727 123.833L31.9453 126.583Z" fill="#355B5E" stroke="#263238" stroke-linecap="round" stroke-linejoin="round"/>
<path d="M35.4236 109.534C34.6312 110.777 32.9799 119.988 32.1021 124.978C34.7351 125.699 37.5104 125.973 40.2684 125.782V105.791C40.2684 105.791 36.4533 107.914 35.4236 109.534Z" fill="#355B5E" stroke="#263238" stroke-linecap="round" stroke-linejoin="round"/>
<path d="M37.9147 119.249L34.5884 117.512" stroke="#263238" stroke-linecap="round" stroke-linejoin="round"/>
<path d="M35.8604 120.246L38.2045 119.997" stroke="#263238" stroke-linecap="round" stroke-linejoin="round"/>
<path d="M38.6503 142.26C38.5501 142.646 38.325 143.001 38.0002 143.285L37.5257 143.599L37.2505 145.018C37.2505 145.018 37.4355 145.883 37.5257 146.353" stroke="#263238" stroke-linecap="round" stroke-linejoin="round"/>
<path d="M38.84 146.039L38.7451 143.993" stroke="#263238" stroke-linecap="round" stroke-linejoin="round"/>
<path d="M38.5602 123.997C38.3798 118.481 36.9516 113.845 36.8424 112.94C36.719 111.875 36.3964 109.165 38.7689 106.804C39.9757 105.808 41.3551 104.975 42.8593 104.332C43.6991 104.119 44.3445 104.018 44.3445 104.018L43.9222 103.905C44.6572 103.638 45.4135 103.415 46.1856 103.238C48.1643 102.792 53.4314 102.567 55.0116 103.797C55.0116 103.797 59.5764 105.003 61.8208 106.386C62.951 107.582 63.6585 109.025 63.8612 110.548C64.0985 112.763 64.5635 123.475 64.7343 127.52C64.7723 128.436 64.8577 129.341 64.9906 130.25C65.2895 132.26 65.6739 139.16 65.6739 139.16C65.6739 139.16 60.6772 140.623 52.639 140.402C44.6007 140.181 39.699 138.432 39.699 138.432L38.5175 137.901C38.5175 137.901 38.5175 131.359 38.5175 130.262C38.5317 128.119 38.5886 124.034 38.5602 123.997Z" fill="#355B5E" stroke="#263238" stroke-linecap="round" stroke-linejoin="round"/>
<path d="M52.8237 119.735C53.1777 120.284 53.5958 120.801 54.0717 121.279L52.8237 119.735Z" fill="#355B5E"/>
<path d="M52.8237 119.735C53.1777 120.284 53.5958 120.801 54.0717 121.279" stroke="#263238" stroke-linecap="round" stroke-linejoin="round"/>
<path d="M49.1514 110.99C49.8683 113.611 50.8755 116.169 52.1598 118.63L49.1514 110.99Z" fill="#355B5E"/>
<path d="M49.1514 110.99C49.8683 113.611 50.8755 116.169 52.1598 118.63" stroke="#263238" stroke-linecap="round" stroke-linejoin="round"/>
<path d="M49.4502 115.767C49.7681 116.281 50.0623 116.748 50.2948 117.106L49.4502 115.767Z" fill="#355B5E"/>
<path d="M49.4502 115.767C49.7681 116.281 50.0623 116.748 50.2948 117.106" stroke="#263238" stroke-linecap="round" stroke-linejoin="round"/>
<path d="M46.627 111.087C46.627 111.087 47.6329 112.791 48.6626 114.488L46.627 111.087Z" fill="#355B5E"/>
<path d="M46.627 111.087C46.627 111.087 47.6329 112.791 48.6626 114.488" stroke="#263238" stroke-linecap="round" stroke-linejoin="round"/>
<path d="M58.1904 104.758C58.1904 104.758 56.2639 102.422 55.8701 102.201C55.4762 101.98 47.4854 101.26 45.7724 101.706C44.0594 102.152 42.8589 104.332 42.8589 104.332C42.8589 104.332 51.3384 103.861 58.1904 104.758Z" fill="white" stroke="#263238" stroke-linecap="round" stroke-linejoin="round"/>
<path d="M59.8801 116.736L67.534 122.474C67.534 122.474 71.6528 124.966 73.2757 124.484C74.6992 124.042 87.4446 114.508 90.4056 112.285L91.5587 111.73C91.5587 111.73 93.2052 111.73 93.6845 111.473C94.1637 111.215 94.8803 110.729 94.8803 110.729H95.2789C95.6774 110.729 95.9194 110.254 96.0808 109.78C96.2421 109.305 96.7166 107.954 96.5553 107.617C96.394 107.279 94.3156 106.125 94.3156 106.125C94.3156 106.125 94.8755 105.449 95.1175 105.18C95.3595 104.911 96.152 104.163 96.0666 103.487C95.9811 102.812 95.1175 102.47 94.3868 103.218C93.656 103.966 90.0734 106.262 89.5942 107.074C89.2573 107.641 88.7685 108.558 88.498 109.056L73.9969 115.863C73.9969 115.863 65.6028 107.508 64.7202 107.018C63.8376 106.527 57.2798 104.846 57.2798 104.846" fill="white"/>
<path d="M59.8801 116.736L67.534 122.474C67.534 122.474 71.6528 124.966 73.2757 124.484C74.6992 124.042 87.4446 114.508 90.4056 112.285L91.5587 111.73C91.5587 111.73 93.2052 111.73 93.6845 111.473C94.1637 111.215 94.8803 110.729 94.8803 110.729H95.2789C95.6774 110.729 95.9195 110.254 96.0808 109.78C96.2421 109.305 96.7166 107.954 96.5553 107.617C96.394 107.279 94.3156 106.125 94.3156 106.125C94.3156 106.125 94.8755 105.449 95.1175 105.18C95.3595 104.911 96.152 104.163 96.0666 103.487C95.9811 102.812 95.1175 102.47 94.3868 103.218C93.656 103.966 90.0734 106.262 89.5942 107.074C89.2573 107.641 88.7685 108.558 88.498 109.056L73.9969 115.863C73.9969 115.863 65.6028 107.508 64.7202 107.018C63.8376 106.527 57.2798 104.846 57.2798 104.846" stroke="#263238" stroke-linecap="round" stroke-linejoin="round"/>
<path d="M59.88 116.736L67.534 122.473C67.534 122.473 71.6527 124.966 73.2756 124.484C73.845 124.307 76.2318 122.675 79.0741 120.636C79.0389 119.536 78.7871 118.449 78.3291 117.419C77.9383 116.413 77.2583 115.506 76.3504 114.778L74.0111 115.875C74.0111 115.875 65.6169 107.52 64.7343 107.03C63.8517 106.539 57.2939 104.858 57.2939 104.858" fill="#355B5E"/>
<path d="M59.88 116.736L67.534 122.473C67.534 122.473 71.6527 124.966 73.2756 124.484C73.845 124.307 76.2318 122.675 79.0741 120.636C79.0389 119.536 78.7871 118.449 78.3291 117.419C77.9383 116.413 77.2583 115.506 76.3504 114.778L74.0111 115.875C74.0111 115.875 65.6169 107.52 64.7343 107.03C63.8517 106.539 57.2939 104.858 57.2939 104.858" stroke="#263238" stroke-linecap="round" stroke-linejoin="round"/>
<path d="M74.9268 115.027C74.9268 115.027 75.3633 114.528 76.6255 115.859C77.8877 117.19 78.5236 120.306 78.5236 120.748C78.5236 121.191 79.3635 121.014 79.8854 120.483C80.4074 119.952 82.0872 119.771 82.3007 118.348C82.5142 116.925 81.774 114.971 80.8297 113.728C79.8854 112.486 79.9898 112.482 79.0455 112.659C78.1013 112.836 75.2257 114.384 74.9268 115.027Z" fill="#355B5E" stroke="#263238" stroke-linecap="round" stroke-linejoin="round"/>
<path d="M74.0161 115.859C74.0161 115.859 74.9889 117.013 74.5998 119.249L74.0161 115.859Z" fill="#355B5E"/>
<path d="M74.0161 115.859C74.0161 115.859 74.9889 117.013 74.5998 119.249" stroke="#263238" stroke-linecap="round" stroke-linejoin="round"/>
<path d="M75.6009 118.091C75.6009 118.091 75.99 118.919 75.207 120.745L75.6009 118.091Z" fill="#355B5E"/>
<path d="M75.6009 118.091C75.6009 118.091 75.99 118.919 75.207 120.745" stroke="#263238" stroke-linecap="round" stroke-linejoin="round"/>
<path d="M94.5815 110.636C94.7879 110.23 94.896 109.792 94.8995 109.35L94.5815 110.636Z" fill="white"/>
<path d="M94.5815 110.636C94.7879 110.23 94.896 109.792 94.8995 109.35" stroke="#263238" stroke-linecap="round" stroke-linejoin="round"/>
<path d="M6.69629 191.735H225.846" stroke="#263238" stroke-miterlimit="10"/>
</svg>
