<svg width="181" height="73" viewBox="0 0 181 73" fill="none" xmlns="http://www.w3.org/2000/svg">
<path d="M3.0625 25H10.9375V60.2188L10.1445 67H3.0625V25ZM29.668 51.9062V52.4805C29.668 54.6862 29.431 56.7096 28.957 58.5508C28.5013 60.3919 27.7904 61.987 26.8242 63.3359C25.8581 64.6667 24.6549 65.7057 23.2148 66.4531C21.793 67.1823 20.1159 67.5469 18.1836 67.5469C16.3789 67.5469 14.8112 67.1823 13.4805 66.4531C12.168 65.724 11.0651 64.694 10.1719 63.3633C9.27865 62.0326 8.55859 60.474 8.01172 58.6875C7.46484 56.901 7.05469 54.9505 6.78125 52.8359V51.5781C7.05469 49.4635 7.46484 47.513 8.01172 45.7266C8.55859 43.9401 9.27865 42.3815 10.1719 41.0508C11.0651 39.7201 12.168 38.6901 13.4805 37.9609C14.793 37.2318 16.3424 36.8672 18.1289 36.8672C20.0794 36.8672 21.7747 37.2409 23.2148 37.9883C24.6732 38.7174 25.8763 39.7565 26.8242 41.1055C27.7904 42.4362 28.5013 44.0221 28.957 45.8633C29.431 47.6862 29.668 49.7005 29.668 51.9062ZM21.793 52.4805V51.9062C21.793 50.7031 21.7018 49.5729 21.5195 48.5156C21.3555 47.4401 21.0638 46.5013 20.6445 45.6992C20.2253 44.8789 19.651 44.2318 18.9219 43.7578C18.2109 43.2839 17.2904 43.0469 16.1602 43.0469C15.0846 43.0469 14.1732 43.2292 13.4258 43.5938C12.6784 43.9583 12.0586 44.4688 11.5664 45.125C11.0924 45.7812 10.737 46.5651 10.5 47.4766C10.263 48.3698 10.1172 49.3542 10.0625 50.4297V54.0117C10.1172 55.4518 10.3542 56.7279 10.7734 57.8398C11.2109 58.9336 11.8672 59.7995 12.7422 60.4375C13.6354 61.0573 14.793 61.3672 16.2148 61.3672C17.3268 61.3672 18.2474 61.1484 18.9766 60.7109C19.7057 60.2734 20.2708 59.6536 20.6719 58.8516C21.0911 58.0495 21.3828 57.1107 21.5469 56.0352C21.7109 54.9414 21.793 53.7565 21.793 52.4805ZM48.1797 67.5469C45.8828 67.5469 43.8229 67.1823 42 66.4531C40.1771 65.7057 38.6276 64.6758 37.3516 63.3633C36.0938 62.0508 35.1276 60.5286 34.4531 58.7969C33.7786 57.0469 33.4414 55.1875 33.4414 53.2188V52.125C33.4414 49.8828 33.7604 47.832 34.3984 45.9727C35.0365 44.1133 35.9479 42.5 37.1328 41.1328C38.3359 39.7656 39.7943 38.7174 41.5078 37.9883C43.2214 37.2409 45.1536 36.8672 47.3047 36.8672C49.401 36.8672 51.2604 37.2135 52.8828 37.9062C54.5052 38.599 55.8633 39.5833 56.957 40.8594C58.069 42.1354 58.9076 43.6667 59.4727 45.4531C60.0378 47.2214 60.3203 49.1901 60.3203 51.3594V54.6406H36.8047V49.3906H52.582V48.7891C52.582 47.6953 52.3815 46.7201 51.9805 45.8633C51.5977 44.9883 51.0143 44.2956 50.2305 43.7852C49.4466 43.2747 48.444 43.0195 47.2227 43.0195C46.1836 43.0195 45.2904 43.2474 44.543 43.7031C43.7956 44.1589 43.1849 44.7969 42.7109 45.6172C42.2552 46.4375 41.9089 47.4036 41.6719 48.5156C41.4531 49.6094 41.3438 50.8125 41.3438 52.125V53.2188C41.3438 54.4036 41.5078 55.4974 41.8359 56.5C42.1823 57.5026 42.6654 58.3685 43.2852 59.0977C43.9232 59.8268 44.6888 60.3919 45.582 60.793C46.4935 61.194 47.5234 61.3945 48.6719 61.3945C50.0938 61.3945 51.4154 61.1211 52.6367 60.5742C53.8763 60.0091 54.9427 59.1615 55.8359 58.0312L59.6641 62.1875C59.0443 63.0807 58.1966 63.9375 57.1211 64.7578C56.0638 65.5781 54.7878 66.2526 53.293 66.7812C51.7982 67.2917 50.0938 67.5469 48.1797 67.5469ZM79.2969 37.4141V42.9922H62.0703V37.4141H79.2969ZM66.3359 30.1133H74.2109V58.0859C74.2109 58.9427 74.3203 59.599 74.5391 60.0547C74.776 60.5104 75.1224 60.8294 75.5781 61.0117C76.0339 61.1758 76.6081 61.2578 77.3008 61.2578C77.793 61.2578 78.2305 61.2396 78.6133 61.2031C79.0143 61.1484 79.3516 61.0938 79.625 61.0391L79.6523 66.8359C78.9779 67.0547 78.2487 67.2279 77.4648 67.3555C76.681 67.4831 75.8151 67.5469 74.8672 67.5469C73.1354 67.5469 71.6224 67.2643 70.3281 66.6992C69.0521 66.1159 68.0677 65.1862 67.375 63.9102C66.6823 62.6341 66.3359 60.957 66.3359 58.8789V30.1133ZM91.4922 43.7305V67H83.6172V37.4141H91L91.4922 43.7305ZM90.3438 51.168H88.2109C88.2109 48.9805 88.4935 47.0117 89.0586 45.2617C89.6237 43.4935 90.4167 41.9896 91.4375 40.75C92.4583 39.4922 93.6706 38.5352 95.0742 37.8789C96.4961 37.2044 98.082 36.8672 99.832 36.8672C101.217 36.8672 102.484 37.0677 103.633 37.4688C104.781 37.8698 105.766 38.5078 106.586 39.3828C107.424 40.2578 108.062 41.4154 108.5 42.8555C108.956 44.2956 109.184 46.0547 109.184 48.1328V67H101.254V48.1055C101.254 46.793 101.072 45.7721 100.707 45.043C100.342 44.3138 99.8047 43.8034 99.0938 43.5117C98.401 43.2018 97.5443 43.0469 96.5234 43.0469C95.4661 43.0469 94.5456 43.2565 93.7617 43.6758C92.9961 44.0951 92.3581 44.6784 91.8477 45.4258C91.3555 46.1549 90.9818 47.0117 90.7266 47.9961C90.4714 48.9805 90.3438 50.0378 90.3438 51.168Z" fill="#73888A"/>
<path d="M149.968 7.98629C149.968 7.98629 128.399 95.6243 121.571 58.1393" stroke="#355B5E" stroke-width="7"/>
<path d="M149.969 5.26506C149.969 5.26506 174.161 93.577 178.183 56.7822" stroke="#355B5E" stroke-width="7"/>
<path d="M150.542 49.8712C155.022 49.8758 159.391 48.0684 163.036 44.7025C166.682 41.3366 169.421 36.5809 170.869 31.1019L167.609 29.6335C165.115 39.0821 158.248 45.4023 150.542 45.4023C142.836 45.4023 135.97 39.0821 133.475 29.6335L130.215 31.1019C131.664 36.5809 134.403 41.3366 138.048 44.7025C141.693 48.0684 146.062 49.8758 150.542 49.8712Z" fill="#355B5E"/>
<path d="M168.322 30.8202C168.02 30.4037 167.793 29.9308 167.642 29.4015C167.491 28.8723 167.415 28.3322 167.415 27.7814C167.415 27.2303 167.491 26.6901 167.642 26.1608C167.793 25.6315 168.02 25.1586 168.322 24.7421L170.059 22.3473C170.147 22.2259 170.259 22.1608 170.395 22.1521C170.53 22.1434 170.645 22.2042 170.739 22.3343C170.827 22.4558 170.871 22.6099 170.871 22.7966C170.871 22.9833 170.827 23.1373 170.739 23.2584L169.2 25.3799C169.452 25.6575 169.606 26.0285 169.663 26.4929C169.719 26.9573 169.609 27.3845 169.332 27.7746L169.596 28.1391C169.855 27.8094 170.001 27.3712 170.036 26.8245C170.07 26.2779 169.965 25.8007 169.719 25.3929L172.599 21.4233C172.694 21.2931 172.806 21.228 172.935 21.228C173.064 21.228 173.176 21.2931 173.27 21.4233C173.358 21.5447 173.405 21.6945 173.411 21.8725C173.418 22.0506 173.37 22.2088 173.27 22.3473L171.202 25.1976L171.457 25.5621L174.063 21.9699C174.151 21.8484 174.263 21.7877 174.398 21.7877C174.534 21.7877 174.646 21.8484 174.733 21.9699C174.822 22.0914 174.866 22.2453 174.866 22.4317C174.866 22.618 174.822 22.7721 174.733 22.894L172.127 26.4861L172.401 26.8506L174.601 23.818C174.696 23.6879 174.807 23.6228 174.937 23.6228C175.066 23.6228 175.177 23.6879 175.272 23.818C175.36 23.9395 175.404 24.0934 175.404 24.2798C175.404 24.4662 175.36 24.6203 175.272 24.7421L172.798 28.1391L173.062 28.5165L174.733 26.2128C174.834 26.074 174.949 26.0089 175.078 26.0176C175.207 26.0263 175.316 26.0914 175.404 26.2128C175.492 26.3343 175.539 26.4841 175.545 26.6621C175.552 26.8402 175.505 26.9984 175.404 27.1369L172.731 30.8202C172.429 31.2367 172.086 31.549 171.702 31.7573C171.318 31.9655 170.926 32.0696 170.527 32.0696C170.127 32.0696 169.735 31.9655 169.351 31.7573C168.967 31.549 168.624 31.2367 168.322 30.8202Z" fill="#355B5E"/>
<path d="M132.888 31.1251C132.528 31.4648 132.138 31.6975 131.719 31.8232C131.301 31.9489 130.887 31.9738 130.477 31.898C130.068 31.8221 129.68 31.6485 129.312 31.3771C128.944 31.1057 128.632 30.7428 128.373 30.2884L126.889 27.6755C126.814 27.5429 126.784 27.387 126.801 27.2078C126.817 27.0286 126.882 26.8861 126.995 26.7802C127.1 26.6811 127.222 26.6444 127.36 26.6702C127.499 26.6959 127.606 26.775 127.681 26.9074L128.996 29.2221C129.245 28.9294 129.547 28.7778 129.901 28.7673C130.256 28.7568 130.554 28.9604 130.797 29.3781L131.113 29.0808C130.912 28.6962 130.611 28.4435 130.211 28.3226C129.811 28.2017 129.438 28.2746 129.094 28.5414L126.633 24.2103C126.552 24.0683 126.523 23.9124 126.545 23.7426C126.567 23.5729 126.634 23.4351 126.747 23.3292C126.852 23.2302 126.971 23.1887 127.105 23.205C127.238 23.2212 127.347 23.305 127.433 23.4565L129.2 26.5664L129.514 26.2815L127.287 22.3622C127.212 22.2296 127.186 22.0743 127.209 21.8963C127.232 21.7183 127.296 21.5799 127.401 21.4811C127.506 21.382 127.628 21.3453 127.766 21.371C127.905 21.3966 128.012 21.4758 128.087 21.6083L130.314 25.5277L130.631 25.218L128.751 21.9093C128.671 21.7673 128.641 21.6114 128.663 21.4416C128.685 21.2719 128.752 21.1341 128.865 21.0282C128.97 20.9292 129.092 20.8924 129.23 20.9181C129.369 20.9437 129.476 21.0229 129.551 21.1555L131.655 24.8742L131.981 24.5787L130.553 22.0652C130.467 21.9137 130.438 21.7537 130.466 21.5852C130.494 21.4166 130.561 21.283 130.666 21.1842C130.772 21.0851 130.891 21.0437 131.024 21.0599C131.157 21.0761 131.267 21.16 131.353 21.3114L133.636 25.3301C133.894 25.7846 134.068 26.2784 134.157 26.8117C134.247 27.345 134.258 27.8742 134.19 28.3994C134.122 28.9248 133.979 29.4255 133.759 29.9015C133.539 30.3775 133.249 30.7853 132.888 31.1251Z" fill="#355B5E"/>
<path d="M143.829 46.9498C144.878 47.6298 146.914 52.886 150.617 52.886C154.319 52.886 156.355 47.0901 157.404 46.4102" stroke="#355B5E" stroke-width="2" stroke-linecap="round"/>
</svg>
